<svg width="78" height="78" fill="none" xmlns="http://www.w3.org/2000/svg"><path fill-rule="evenodd" clip-rule="evenodd" d="M67.493 12.373l.045.048C74.294 19.663 78 29.046 78 39c0 10.417-4.057 20.21-11.423 27.577C59.211 73.943 49.417 78 39 78c-10.417 0-20.211-4.057-27.577-11.423C4.057 59.211 0 49.417 0 39c0-10.417 4.057-20.211 11.423-27.577C18.789 4.057 28.583 0 39 0c9.883 0 19.204 3.654 26.424 10.32l.031.028c.21.194.418.39.624.589l.012.011.015.015.01.01.092.089c.123.12.247.24.369.361.126.126.25.254.374.382l.075.078.011.011.015.015a.313.313 0 0 1 .01.01l.004.005c.144.149.286.299.427.45zm-3.802 15.415l6.984-6.984a36.78 36.78 0 0 0-16.66-15.112l-6.21 6.21a.418.418 0 0 0 0 .59L63.1 27.788a.415.415 0 0 0 .59 0zM55.913 32.9a5.006 5.006 0 0 1 0 7.072L54.886 41v-8.276c0-2.363-1.884-4.35-4.2-4.427a4.332 4.332 0 0 0-2.114.465c-.385-1.974-2.085-3.513-4.118-3.58a4.317 4.317 0 0 0-2.114.464c-.386-1.974-2.086-3.513-4.119-3.581a4.31 4.31 0 0 0-3.17 1.22 4.31 4.31 0 0 0-1.258 2.353 4.323 4.323 0 0 0-2.1-.457c-2.316.077-4.2 2.063-4.2 4.427v5.345a4.323 4.323 0 0 0-2.032-.424c-2.316.078-4.2 2.063-4.2 4.427v.272c-.516-.922-.794-1.979-.755-3.013.03-.787.29-2.243 1.703-3.15.037-.024.073-.05.109-.08l.013-.011a.302.302 0 0 1 .014-.012l.006-.005.001-.001.003-.002.05-.046 3.506-3.434a1.232 1.232 0 0 0-1.724-1.759l-2.635 2.58-2.674-2.673 8.035-8.035 3.444-3.444 2.666 2.665-.994 1.01a1.232 1.232 0 1 0 1.756 1.727l1.746-1.774c.036-.03.071-.06.104-.093a4.968 4.968 0 0 1 3.53-1.464 4.968 4.968 0 0 1 3.528 1.464 1.2 1.2 0 0 0 .11.097l5.413 5.412a1.231 1.231 0 1 0 1.742-1.742l-4.645-4.644 2.658-2.659 11.48 11.48-3.537 3.536c-.48.48-.48 1.26 0 1.741zM51.542 4.681A36.37 36.37 0 0 0 39 2.463a36.37 36.37 0 0 0-12.3 2.133l5.566 5.565a2.884 2.884 0 0 1 0 4.074l-.167.167 2.733 2.732a7.38 7.38 0 0 1 3.7-1.355l.13-.01h.012a6.628 6.628 0 0 1 .456-.017l.027-.001h.014a.63.63 0 0 1 .024 0h.004a7.685 7.685 0 0 1 .288.007l.18.011.128.01c.075.006.15.013.223.021l.022.003h.007l.021.003a7.38 7.38 0 0 1 3.43 1.327L46.23 14.4l-.167-.167a2.884 2.884 0 0 1 0-4.073l5.479-5.48zm-27.328.911l6.31 6.31a.418.418 0 0 1 0 .59l-7.648 7.648-6.605 6.606-1.043 1.042a.418.418 0 0 1-.59 0l-7.19-7.19A36.773 36.773 0 0 1 24.213 5.591zm.163 66.887v-8.584a2.884 2.884 0 0 1 2.88-2.88h.236v-3.871c-3.531-.589-6.232-3.666-6.232-7.362v-6.849c-2.052-1.577-3.313-4.242-3.216-6.81.062-1.647.647-3.086 1.676-4.175l-2.585-2.585-.166.167a2.862 2.862 0 0 1-2.037.844c-.77 0-1.493-.3-2.037-.844l-6.669-6.669A36.314 36.314 0 0 0 2.463 39c0 14.95 9.026 27.829 21.914 33.48zm24.635 1.663l-.06.017-.047.013a36.359 36.359 0 0 1-1.492.386l-.184.044c-.094.022-.189.042-.283.062l-.134.03a36.669 36.669 0 0 1-.928.19l-.063.011a36.538 36.538 0 0 1-6.821.642 36.612 36.612 0 0 1-7.143-.704l-.087-.016-.013-.003a36.202 36.202 0 0 1-4.917-1.36v-9.56c0-.23.187-.417.418-.417h9.91a1.232 1.232 0 0 0 0-2.463h-7.211v-4.997c0-.673-.54-1.238-1.212-1.235a5.006 5.006 0 0 1-5.02-5V38.955c0-1.05.816-1.931 1.819-1.965a1.88 1.88 0 0 1 1.504.666c.299.351.446.807.446 1.268v3.015c0 .674.52 1.262 1.194 1.282a1.232 1.232 0 0 0 1.269-1.231V29.608c0-1.05.816-1.932 1.819-1.965.53-.018 1.03.18 1.403.555.362.365.547.872.547 1.386v12.355c0 .675.52 1.263 1.194 1.283.697.02 1.27-.538 1.27-1.231V26.459c0-.46.146-.916.445-1.267a1.879 1.879 0 0 1 1.504-.666c1.003.034 1.82.916 1.82 1.966v15.447c0 .675.519 1.263 1.193 1.283.698.02 1.27-.538 1.27-1.231V29.58c0-.51.182-1.012.54-1.376.374-.38.87-.58 1.41-.563 1.002.034 1.819.916 1.819 1.966v12.331c0 .675.52 1.263 1.193 1.283.698.02 1.27-.538 1.27-1.231v-9.3c0-.462.148-.918.447-1.27a1.876 1.876 0 0 1 1.503-.662c1.003.033 1.819.915 1.819 1.965V49.78a5.006 5.006 0 0 1-5.02 5.001c-.674-.003-1.212.563-1.212 1.236v4.996h-3.025a1.232 1.232 0 0 0 0 2.463h5.724c.23 0 .417.187.417.418v10.16l-.122.036h-.002l-.171.051zm2.758-10.247v9.337C65.637 68.042 75.537 54.656 75.537 39a36.318 36.318 0 0 0-3.655-15.92l-6.45 6.45a2.863 2.863 0 0 1-2.037.844 2.86 2.86 0 0 1-2.036-.844l-.167-.167-2.737 2.737c2.08 2.914 1.815 7-.799 9.613l-2.76 2.76-.006.005-.004.004v5.3c0 3.696-2.7 6.773-6.232 7.362v3.87h.236a2.884 2.884 0 0 1 2.88 2.88z" fill="#6F9CD6"/></svg>