<svg width="79" height="78" fill="none" xmlns="http://www.w3.org/2000/svg"><path d="M75.024 27.21l-6.518-1.306a24.442 24.442 0 0 0-1.652-3.995l3.687-5.542a4.16 4.16 0 0 0-.516-5.228l-2.795-2.8a4.139 4.139 0 0 0-5.217-.517l-5.531 3.694a24.354 24.354 0 0 0-3.988-1.655L51.19 3.33A4.147 4.147 0 0 0 47.136 0h-3.952a4.148 4.148 0 0 0-4.054 3.33l-1.304 6.53a24.344 24.344 0 0 0-3.988 1.656l-5.53-3.694a4.14 4.14 0 0 0-5.218.517l-2.795 2.8a4.16 4.16 0 0 0-.516 5.227l3.687 5.542a24.436 24.436 0 0 0-1.652 3.996l-6.518 1.306a4.152 4.152 0 0 0-3.324 4.062v3.96a4.152 4.152 0 0 0 3.324 4.063l4.22.845a1.232 1.232 0 0 0 .482-2.415l-4.22-.846a1.683 1.683 0 0 1-1.347-1.646v-3.96c0-.798.567-1.49 1.347-1.647l7.244-1.452c.454-.09.818-.43.943-.876a21.964 21.964 0 0 1 2.006-4.85 1.234 1.234 0 0 0-.048-1.288L21.824 15a1.686 1.686 0 0 1 .21-2.119l2.795-2.8a1.678 1.678 0 0 1 2.114-.21l6.148 4.106c.385.258.882.276 1.285.049a21.867 21.867 0 0 1 4.842-2.01c.445-.125.783-.49.874-.944l1.449-7.259a1.682 1.682 0 0 1 1.643-1.35h3.953c.796 0 1.487.568 1.643 1.35l1.449 7.259c.09.455.428.82.874.944a21.869 21.869 0 0 1 4.841 2.01c.404.227.9.209 1.285-.049l6.148-4.106a1.678 1.678 0 0 1 2.115.21l2.795 2.8a1.69 1.69 0 0 1 .21 2.12l-4.1 6.159a1.233 1.233 0 0 0-.047 1.288 21.969 21.969 0 0 1 2.006 4.85c.124.447.489.785.942.876l7.245 1.452c.78.156 1.347.849 1.347 1.647v3.96c0 .797-.567 1.49-1.347 1.646l-7.245 1.452a1.23 1.23 0 0 0-.942.876 21.966 21.966 0 0 1-2.006 4.85c-.227.405-.209.902.048 1.288l4.098 6.16a1.686 1.686 0 0 1-.21 2.119l-2.794 2.8a1.678 1.678 0 0 1-2.115.21l-6.148-4.106a1.227 1.227 0 0 0-1.704.341 1.233 1.233 0 0 0 .34 1.708l6.149 4.106a4.113 4.113 0 0 0 2.289.693 4.13 4.13 0 0 0 2.927-1.21l2.795-2.8a4.16 4.16 0 0 0 .517-5.227l-3.688-5.542a24.45 24.45 0 0 0 1.652-3.996l6.518-1.306a4.152 4.152 0 0 0 3.324-4.062v-3.96a4.152 4.152 0 0 0-3.324-4.063z" fill="#6F9CD6"/><path d="M49.258 42.695H37.785a1.23 1.23 0 0 0-1.23 1.231c0 .68.551 1.232 1.23 1.232h11.473c1.13 0 2.048.92 2.048 2.053v1.642a2.053 2.053 0 0 1-2.048 2.052H37.785a1.23 1.23 0 0 0-1.23 1.232c0 .68.551 1.231 1.23 1.231h11.473c1.13 0 2.048.921 2.048 2.053v1.642a2.053 2.053 0 0 1-2.048 2.053H37.785a1.23 1.23 0 0 0-1.23 1.231c0 .68.551 1.232 1.23 1.232h11.473c1.13 0 2.048.92 2.048 2.053v1.642a2.053 2.053 0 0 1-2.048 2.052H37.785a1.23 1.23 0 0 0-1.23 1.232c0 .68.551 1.232 1.23 1.232h11.473c1.13 0 2.048.92 2.048 2.052v1.642a2.053 2.053 0 0 1-2.048 2.053H26.992a4.335 4.335 0 0 1-3.08-1.274 6.81 6.81 0 0 0-4.834-2.01H16.07V58.706a1.23 1.23 0 1 0-2.459 0v16.42a.41.41 0 0 1-.41.411H9.514V58.705a1.23 1.23 0 1 0-2.458 0v16.832H3.368a.41.41 0 0 1-.41-.41V47.21a.41.41 0 0 1 .41-.41h9.833a.41.41 0 0 1 .41.41v6.568a1.23 1.23 0 1 0 2.459 0v-3.695h2.963a4.503 4.503 0 0 0 4.276-3.087l.457-1.376a41.696 41.696 0 0 0 2.137-13.19c0-1.131.919-2.052 2.049-2.052a3.66 3.66 0 0 1 2.607 1.082 3.674 3.674 0 0 1 1.08 2.613V47.21a1.23 1.23 0 0 0 2.458 0V34.074a6.124 6.124 0 0 0-1.8-4.355 6.1 6.1 0 0 0-4.346-1.803 4.517 4.517 0 0 0-4.507 4.515c0 4.226-.676 8.402-2.01 12.41l-.458 1.376a2.046 2.046 0 0 1-1.943 1.404H16.07v-.41a2.874 2.874 0 0 0-2.869-2.874H3.368A2.875 2.875 0 0 0 .5 47.21v27.915A2.874 2.874 0 0 0 3.368 78h9.833a2.874 2.874 0 0 0 2.869-2.874v-.41h3.008c1.162 0 2.263.46 3.1 1.293A6.776 6.776 0 0 0 26.992 78h22.265a4.516 4.516 0 0 0 4.507-4.516v-1.642a4.51 4.51 0 0 0-1.416-3.284 4.508 4.508 0 0 0 1.416-3.284v-1.642c0-1.293-.545-2.46-1.416-3.285a4.509 4.509 0 0 0 1.416-3.284v-1.642a4.51 4.51 0 0 0-1.416-3.284 4.508 4.508 0 0 0 1.416-3.284V47.21a4.516 4.516 0 0 0-4.507-4.516z" fill="#6F9CD6"/><path fill-rule="evenodd" clip-rule="evenodd" d="M46.133 39.499a6.307 6.307 0 0 1-.977.076 6.324 6.324 0 0 1-.969-12.568c3.437-.538 6.67 1.827 7.207 5.27.536 3.445-1.824 6.684-5.261 7.222zm2.832-6.842a3.858 3.858 0 0 0-4.399-3.217 3.862 3.862 0 0 0-3.21 4.408 3.856 3.856 0 0 0 4.398 3.217 3.862 3.862 0 0 0 3.211-4.407z" fill="#6F9CD6"/><path d="M56.275 45.158c.324 0 .647-.127.888-.38 3.616-3.786 5.228-8.923 4.422-14.094a16.498 16.498 0 0 0-2.945-7.185 1.228 1.228 0 0 0-1.716-.276 1.233 1.233 0 0 0-.276 1.72 14.058 14.058 0 0 1 2.508 6.12 14.12 14.12 0 0 1-3.769 12.012 1.233 1.233 0 0 0 .888 2.083zm-.865-23.48a1.233 1.233 0 0 0-.24-1.725c-3.625-2.737-8.09-3.86-12.574-3.158-5.144.805-9.528 3.894-12.029 8.477a1.233 1.233 0 0 0 1.078 1.823 1.23 1.23 0 0 0 1.079-.64c2.131-3.907 5.868-6.54 10.251-7.226 3.82-.598 7.626.359 10.714 2.692.542.409 1.313.3 1.722-.243z" fill="#6F9CD6"/></svg>