<?xml-stylesheet type="text/css" href="svg.css" ?><svg width="55" height="50" fill="none" xmlns="http://www.w3.org/2000/svg"><path fill-rule="evenodd" clip-rule="evenodd" d="M45.27 23.604V.093H0v49.814h54.237V23.604H45.27zM3.222 3.314H5.96v14.258H3.222V3.316zm2.737 17.48H3.222v6.354H5.96v-6.354zm5.831 25.89H3.222V30.37H5.96v13.578h5.831v2.737zm3.223-5.958v5.959h36.002v-19.86H33.349v-2.148h-2.471v-3.222h2.47v-3.883h3.222v6.032h5.478V3.314H36.57v7.107h-3.222V3.315H20.89v4.09h-3.222v-4.09H9.181v14.257H20.89v18.015h-3.222V20.794H9.181v19.932h5.832z" fill="#dadada"/></svg>