<?xml-stylesheet type="text/css" href="svg.css" ?><svg width="50" height="50" fill="none" xmlns="http://www.w3.org/2000/svg"><path fill-rule="evenodd" clip-rule="evenodd" d="M46.836 36.937V13.12h-5.505V8.39H28.96v4.73H18.268v-2.307h8.197V0H7.14v10.813h8.197v2.307H3.164v23.817H0V50h50V36.937h-3.164zM31.89 11.32h6.51v10.157h-6.51V11.32zM10.07 2.93v4.954h13.464V2.93H10.071zM6.093 16.05H28.96v5.427h-.782v2.93h13.936v-2.93h-.782V16.05h2.576v20.887H6.093V16.05zM2.93 47.07h44.14v-7.203H2.93v7.203z" fill="#D8D8D8"/><path fill-rule="evenodd" clip-rule="evenodd" d="M7.738 28.816V18.002h18.13v10.814H7.739zm2.93-2.93h12.27v-4.954h-12.27v4.954z" fill="#D8D8D8"/><path fill="#D8D8D8" d="M22.203 42.01h5.591v2.93h-5.591z"/></svg>