<?xml-stylesheet type="text/css" href="svg.css" ?><svg width="45" height="50" fill="none" xmlns="http://www.w3.org/2000/svg"><path fill-rule="evenodd" clip-rule="evenodd" d="M35.29 0v5.86l8.753-.033V50H0V5.892h8.775V0H35.29zM24.042 7.383l5.584-4.455H14.494l5.702 4.445v4.699h3.846V7.383zm8.323-2.898v2.383l-5.398 7.827V8.793l5.398-4.308zm-8.323 13.442V15h-3.848v2.928h3.848zM11.7 4.46l5.572 4.344-.001 5.98L11.7 6.89V4.459zM2.925 8.82v38.254h16.14l-4.183-4.09 2.415-23.088L9.48 8.82H2.925zM17.879 41.9l2.207-21.102h4.037L26.004 41.9l-4.014 4.02-4.11-4.02zm7.013 5.173h16.226V8.767l-6.525.025-7.67 11.12 2.057 23.07-4.088 4.091z" fill="#D8D8D8"/></svg>