<?xml-stylesheet type="text/css" href="svg.css" ?><svg width="52" height="50" fill="none" xmlns="http://www.w3.org/2000/svg"><path fill-rule="evenodd" clip-rule="evenodd" d="M35.752 14.332V.035H.004L0 29.852h15.534c-.09.725-.136 1.463-.136 2.212 0 9.87 8.03 17.901 17.901 17.901 9.87 0 17.901-8.03 17.901-17.901 0-9.039-6.734-16.533-15.448-17.732zM3.005 3.037H32.75v5.936H3.004l.001-5.936zm29.745 8.938H3.004v5.936H22.35a17.808 17.808 0 0 1 10.4-3.739v-2.197zM3.002 26.85l.001-5.937h16.302a17.872 17.872 0 0 0-3.132 5.937H3.003zM18.4 32.064c0 8.215 6.683 14.9 14.899 14.9 8.215 0 14.899-6.685 14.899-14.9s-6.684-14.9-14.9-14.9c-8.215 0-14.898 6.685-14.898 14.9z" fill="#D8D8D8"/><path d="M33.698 30.563H32.9a2.207 2.207 0 0 1-2.205-2.205c0-1.215.99-2.204 2.205-2.204h.798c1.216 0 2.205.989 2.205 2.204h3.002A5.215 5.215 0 0 0 34.8 23.27v-3.092h-3.002v3.092a5.215 5.215 0 0 0-4.105 5.088 5.213 5.213 0 0 0 5.207 5.207h.798c1.216 0 2.205.989 2.205 2.205a2.207 2.207 0 0 1-2.205 2.204H32.9a2.207 2.207 0 0 1-2.205-2.204h-3.002a5.215 5.215 0 0 0 4.105 5.088v3.092H34.8v-3.092a5.215 5.215 0 0 0 4.105-5.088 5.213 5.213 0 0 0-5.207-5.207z" fill="#D8D8D8"/></svg>