<?xml-stylesheet type="text/css" href="svg.css" ?><svg width="40" height="50" fill="none" xmlns="http://www.w3.org/2000/svg"><path fill-rule="evenodd" clip-rule="evenodd" d="M22.947 11.29l5.606-6.082L24.87 0H14.143L10.46 5.208l5.607 6.082C6.945 12.92 0 20.91 0 30.493 0 41.25 8.75 50 19.506 50s19.507-8.75 19.507-19.507c0-9.582-6.945-17.573-16.066-19.203zm-8.301-6.353l1.185-1.676h7.352l1.185 1.676-4.861 5.274-4.862-5.274zM3.26 30.493c0 8.958 7.288 16.246 16.245 16.246 8.959 0 16.246-7.288 16.246-16.246 0-8.958-7.287-16.245-16.246-16.245-8.957 0-16.245 7.287-16.245 16.245z" fill="#D8D8D8"/></svg>