<?xml-stylesheet type="text/css" href="svg.css" ?><svg width="50" height="50" fill="none" xmlns="http://www.w3.org/2000/svg"><path fill-rule="evenodd" clip-rule="evenodd" d="M11.816 0v12.423c-3.127 1.36-5.02 4.795-4.235 8.326l2.572 11.575H6.366l-2.93 8.79H0V50h50V0H11.816zm2.93 14.746c2.824 0 4.917 2.615 4.306 5.367l-2.714 12.211h-3.184l-2.713-12.21c-.613-2.758 1.486-5.368 4.305-5.368zm6.269 20.508H8.478l-1.953 5.86h16.443l-1.953-5.86zm5.45 11.816H2.93v-3.027h23.535v3.027zm2.93 0H47.07V2.93H14.746v8.886c4.691 0 8.185 4.344 7.165 8.933L19.34 32.324h3.787l2.93 8.79h3.338v5.956z" fill="#D8D8D8"/><path fill-rule="evenodd" clip-rule="evenodd" d="M43.75 11.23l-1.545 2.06a10.196 10.196 0 0 1 1.838 5.85c0 5.655-4.6 10.255-10.254 10.255s-10.254-4.6-10.254-10.254 4.6-10.254 10.254-10.254c2.41 0 4.629.836 6.381 2.233l1.236-1.647 2.344 1.757zm-17.285 7.91c0 4.04 3.285 7.325 7.324 7.325s7.324-3.286 7.324-7.324a7.27 7.27 0 0 0-.802-3.326L33.947 24.3l-4.124-4.124 2.072-2.071 1.736 1.735 4.781-6.375a7.29 7.29 0 0 0-4.623-1.649c-4.039 0-7.324 3.286-7.324 7.325z" fill="#D8D8D8"/></svg>