<?xml-stylesheet type="text/css" href="svg.css" ?><svg width="39" height="50" fill="none" xmlns="http://www.w3.org/2000/svg"><path fill-rule="evenodd" clip-rule="evenodd" d="M4.893 23.586c0-2.937 2.362-5.327 5.265-5.327 2.904 0 5.266 2.39 5.266 5.327s-2.362 5.327-5.266 5.327c-2.903 0-5.265-2.39-5.265-5.327zm2.888 0c0 1.326 1.067 2.405 2.377 2.405 1.311 0 2.378-1.08 2.378-2.405 0-1.326-1.067-2.405-2.378-2.405-1.31 0-2.377 1.079-2.377 2.405zM22.426 6.491C22.426 2.912 25.304 0 28.842 0c3.539 0 6.417 2.912 6.417 6.491 0 3.58-2.878 6.491-6.417 6.491-3.538 0-6.416-2.912-6.416-6.49zm2.889 0c0 1.968 1.582 3.57 3.527 3.57 1.946 0 3.528-1.602 3.528-3.57 0-1.968-1.582-3.569-3.528-3.569-1.945 0-3.527 1.601-3.527 3.57z" fill="#D8D8D8"/><path fill-rule="evenodd" clip-rule="evenodd" d="M30.728 14.748h-3.77c-4.526 0-8.21 3.723-8.215 8.301l-.027 2.053v.019c0 2.953-2.34 5.267-5.324 5.267l-5.118-.01c-4.53 0-8.215 3.73-8.215 8.312v2.145h2.888V38.69a5.402 5.402 0 0 1 2.872-4.78L5.814 50h8.666V33.238a8.159 8.159 0 0 0 4.706-2.288c1.558-1.537 2.416-3.603 2.419-5.819l.026-2.053v-.018c0-.955.248-1.852.68-2.63l2.137 2.17-2.497 27.328h13.76l-2.49-27.325 2.152-2.176c.433.779.681 1.677.681 2.633v7.368h2.889V23.06c0-4.583-3.685-8.312-8.215-8.312zm-19.136 32.33H8.703l.005-13.776 2.884.005v13.77zm20.952-.073l-2.324-25.5 3.11-3.145a5.247 5.247 0 0 0-2.602-.69h-3.77c-.946 0-1.835.252-2.605.692l3.096 3.146-2.33 25.497h7.425z" fill="#D8D8D8"/></svg>