<?xml version="1.0"?>
<svg xmlns="http://www.w3.org/2000/svg" xmlns:xlink="http://www.w3.org/1999/xlink" version="1.1" id="Capa_1" x="0px" y="0px" viewBox="0 0 372.96 372.96" style="enable-background:new 0 0 372.96 372.96;" xml:space="preserve" width="512px" height="512px" class=""><g><path style="fill:#FFFFFF" d="M178.48,364.56C86.148,360.803,12.157,286.812,8.4,194.48v-8v-8  C12.157,86.148,86.148,12.157,178.48,8.4h8h8c92.332,3.757,166.323,77.748,170.08,170.08v8v8  c-3.757,92.332-77.748,166.323-170.08,170.08h-8L178.48,364.56z" data-original="#FFA757" class="" data-old_color="#ffffff"/><g>
	<path style="fill:#333333" d="M186.48,0C83.49,0,0,83.49,0,186.48s83.49,186.48,186.48,186.48s186.48-83.49,186.48-186.48   c0,0,0,0,0,0C372.828,83.545,289.415,0.132,186.48,0L186.48,0z M323.84,194.48h32.8c-4.191,87.75-74.408,157.932-162.16,162.08   v-32.8c0-4.418-3.582-8-8-8s-8,3.582-8,8v32.8C90.759,352.372,20.588,282.201,16.4,194.48h32.8c4.418,0,8-3.582,8-8s-3.582-8-8-8   H16.4C20.588,90.759,90.759,20.588,178.48,16.4v32.8c0,4.418,3.582,8,8,8s8-3.582,8-8V16.4   c87.721,4.188,157.892,74.359,162.08,162.08h-32.8c-4.418,0-8,3.582-8,8s3.582,8,8,8H323.84z" data-original="#3F342B" class="active-path" data-old_color="#3F342B"/>
	<path style="fill:#333333" d="M194.48,183.2v-80.72c0-4.418-3.582-8-8-8s-8,3.582-8,8v84c0.009,2.099,0.842,4.11,2.32,5.6   l78.64,80c3.093,3.159,8.161,3.213,11.32,0.12s3.213-8.161,0.12-11.32l0,0L194.48,183.2z" data-original="#3F342B" class="active-path" data-old_color="#3F342B"/>
</g></g> </svg>
