<svg xmlns="http://www.w3.org/2000/svg" viewBox="0 0 372.96 372.96" width="512" height="512"><path d="M178.48 364.56C86.148 360.803 12.157 286.812 8.4 194.48v-16C12.157 86.148 86.148 12.157 178.48 8.4h16c92.332 3.757 166.323 77.748 170.08 170.08v16c-3.757 92.332-77.748 166.323-170.08 170.08h-16z" data-original="#FFA757" data-old_color="#ffffff" fill="#fff"/><path d="M186.48 0C83.49 0 0 83.49 0 186.48s83.49 186.48 186.48 186.48 186.48-83.49 186.48-186.48C372.828 83.545 289.415.132 186.48 0zm137.36 194.48h32.8c-4.191 87.75-74.408 157.932-162.16 162.08v-32.8a8 8 0 0 0-16 0v32.8C90.759 352.372 20.588 282.201 16.4 194.48h32.8a8 8 0 0 0 0-16H16.4C20.588 90.759 90.759 20.588 178.48 16.4v32.8a8 8 0 0 0 16 0V16.4c87.721 4.188 157.892 74.359 162.08 162.08h-32.8a8 8 0 0 0 0 16h.08z" data-original="#3F342B" class="active-path" data-old_color="#3F342B" fill="#333"/><path d="M194.48 183.2v-80.72a8 8 0 0 0-16 0v84a8 8 0 0 0 2.32 5.6l78.64 80a8.005 8.005 0 1 0 11.44-11.2l-76.4-77.68z" data-original="#3F342B" class="active-path" data-old_color="#3F342B" fill="#333"/></svg>