<?xml version="1.0"?>
<svg xmlns="http://www.w3.org/2000/svg" height="512px" viewBox="0 -44 511.9986 511" width="512px" class=""><g><path d="m218.84375 358.691406h-52.3125c-9.992188 0-18.089844 8.097656-18.089844 18.089844 0 9.988281 8.097656 18.089844 18.089844 18.089844h52.316406c-6.371094-10.984375-6.597656-24.804688-.003906-36.179688zm0 0" fill="#6ab6ff" data-original="#6AB6FF" class="" style="fill:#FFFFFF" data-old_color="#ffffff"/><path d="m330.074219 358.691406h-48.699219c6.367188 10.980469 6.597656 24.800782 0 36.179688h48.699219c9.992187 0 18.089843-8.101563 18.089843-18.089844 0-9.992188-8.097656-18.089844-18.089843-18.089844zm0 0" fill="#6ab6ff" data-original="#6AB6FF" class="" style="fill:#FFFFFF" data-old_color="#ffffff"/><path d="m250.109375 340.652344c-28.046875 0-45.019531 30.496094-31.265625 54.21875 6.25 10.777344 17.90625 18.035156 31.265625 18.035156s25.015625-7.257812 31.265625-18.035156c14.042969-24.214844-3.671875-54.21875-31.265625-54.21875zm0 0" fill="#9bdcff" data-original="#9BDCFF" class="" style="fill:#FFFFFF" data-old_color="#ffffff"/><path d="m241.769531 39.253906c-37.390625 0-71.613281 20.476563-89.320312 53.4375-2.613281 4.867188-.785157 10.929688 4.078125 13.542969 4.84375 2.601563 10.917968.808594 13.542968-4.078125 14.214844-26.464844 41.6875-42.902344 71.699219-42.902344 5.519531 0 9.996094-4.480468 9.996094-10 0-5.523437-4.476563-10-9.996094-10zm0 0" data-original="#000000" class="" style="fill:#333333" data-old_color="#000000"/><path d="m281 43.972656c-5.523438 0-10 4.476563-10 10 0 5.519532 4.476562 9.996094 10 9.996094h.023438c5.523437 0 9.988281-4.476562 9.988281-9.996094 0-5.523437-4.492188-10-10.011719-10zm0 0" data-original="#000000" class="" style="fill:#333333" data-old_color="#000000"/><path d="m380.925781 81.992188c-7.875 1.429687-15.832031-2.035157-20.191406-8.75-24.539063-37.796876-67.089844-62.8125-115.511719-62.8125-58.359375 0-108.210937 36.328124-128.238281 87.597656-2.828125 7.246094-9.960937 12.523437-18.917969 12.523437-48.621094 0-88.039062 39.417969-88.039062 88.039063 0 17.328125 5.007812 33.484375 13.652344 47.101562 6.007812 9.46875 16.59375 15.042969 27.808593 15.042969h400.992188c10.0625 0 19.566406-4.535156 25.984375-12.289063 15.058594-18.195312 23.96875-41.664062 23.519531-67.230468-1.097656-62.707032-58.503906-110.582032-121.058594-99.222656zm-139.15625-22.738282c-30.011719 0-57.484375 16.4375-71.699219 42.902344-2.621093 4.878906-8.691406 6.683594-13.542968 4.078125-4.863282-2.613281-6.691406-8.675781-4.078125-13.542969 17.707031-32.960937 51.933593-53.4375 89.320312-53.4375 5.519531 0 9.996094 4.476563 9.996094 10 0 5.519532-4.476563 10-9.996094 10zm39.253907 4.714844h-.023438c-5.523438 0-10-4.476562-10-9.996094 0-5.523437 4.476562-10 10-10 5.519531 0 10.011719 4.476563 10.011719 10 0 5.519532-4.464844 9.996094-9.988281 9.996094zm0 0" fill="#d4ffff" data-original="#D4FFFF" class="active-path" style="fill:#FFFFFF" data-old_color="#ffffff"/><path d="m379.140625 72.152344c-3.910156.710937-7.84375-1-10.019531-4.355469-65.425782-100.78125-217.671875-85.484375-261.449219 26.59375-1.464844 3.746094-5.160156 6.160156-9.4375 6.160156-.007813 0-.015625 0-.023437 0h-.144532c-77.695312 0-123.707031 86.09375-82.828125 150.5 7.820313 12.324219 21.371094 19.683594 36.25 19.683594h188.625v61.027344c-10.730469 2.378906-20.058593 8.503906-26.550781 16.929687h-47.03125c-11.96875 0-22.207031 7.523438-26.246094 18.089844h-99.917968c-5.523438 0-10 4.480469-10 10 0 5.523438 4.476562 10 10 10h99.917968c4.039063 10.5625 14.277344 18.089844 26.246094 18.089844h47.03125c18.503906 24.023437 54.558594 24.066406 73.097656 0h43.414063c11.96875 0 22.207031-7.527344 26.246093-18.089844h103.535157c5.523437 0 10-4.476562 10-10 0-5.519531-4.476563-10-10-10h-103.535157c-4.039062-10.566406-14.277343-18.089844-26.246093-18.089844h-43.414063c-6.492187-8.425781-15.820312-14.550781-26.550781-16.929687v-61.027344h192.371094c13.039062 0 25.320312-5.800781 33.6875-15.914063 17.117187-20.6875 26.285156-46.890624 25.8125-73.78125-1.191407-68.277343-63.929688-121.410156-132.839844-108.886718zm-174.4375 312.71875h-38.171875c-4.460938 0-8.09375-3.628906-8.09375-8.089844s3.632812-8.09375 8.09375-8.09375h38.171875c-.910156 5.082031-.980469 10.703125 0 16.183594zm90.816406-16.183594h34.554688c4.460937 0 8.09375 3.632812 8.09375 8.09375s-3.632813 8.089844-8.09375 8.089844h-34.554688c.976563-5.5.917969-11.042969 0-16.183594zm-20.191406 14.914062c-3.023437 11.183594-13.253906 19.304688-25.21875 19.304688-13.664063 0-25.03125-10.578125-26.046875-24.183594-1.113281-15.257812 10.984375-28.070312 26.046875-28.070312 17.355469 0 29.734375 16.691406 25.21875 32.949218zm195.429687-141.53125c-4.554687 5.503907-11.214843 8.664063-18.277343 8.664063h-400.992188c-7.875 0-15.296875-3.988281-19.367187-10.398437-32.585938-51.347657 4.1875-119.785157 65.945312-119.785157h.128906.054688c12.5625 0 23.566406-7.40625 28.050781-18.882812 9.246094-23.671875 25.199219-43.886719 46.140625-58.457031 21.417969-14.902344 46.585938-22.78125 72.785156-22.78125 43.394532 0 83.4375 21.777343 107.121094 58.257812 6.582032 10.140625 18.511719 15.300781 30.367188 13.144531 56.863281-10.324219 108.292968 33.550781 109.273437 89.558594.386719 22.117187-7.152343 43.667969-21.230469 60.679687zm0 0" data-original="#000000" class="" style="fill:#333333" data-old_color="#000000"/><path d="m220.382812 133.355469c-10.957031-10.007813-27.488281-10.007813-38.445312 0l-23.160156 21.152343c-4.078125 3.726563-4.363282 10.050782-.640625 14.128907 3.722656 4.074219 10.046875 4.363281 14.125.640625l18.898437-17.257813v51.804688c0 5.523437 4.476563 10 10 10 5.519532 0 10-4.476563 10-10v-51.808594l18.894532 17.261719c1.917968 1.75 4.332031 2.613281 6.742187 2.613281 2.710937 0 5.414063-1.09375 7.386719-3.253906 3.722656-4.078125 3.4375-10.402344-.640625-14.128907zm0 0" data-original="#000000" class="" style="fill:#333333" data-old_color="#000000"/><path d="m339.765625 170.445312-18.898437 17.261719v-51.808593c0-5.519532-4.476563-10-10-10-5.519532 0-9.996094 4.480468-9.996094 10v51.808593l-18.898438-17.261719c-4.074218-3.722656-10.402344-3.4375-14.128906.640626-3.722656 4.078124-3.4375 10.402343.640625 14.128906l23.160156 21.152344c10.957031 10.007812 27.488281 10.007812 38.449219 0l23.160156-21.152344c4.078125-3.726563 4.363282-10.050782.636719-14.128906-3.722656-4.078126-10.050781-4.367188-14.125-.640626zm0 0" data-original="#000000" class="" style="fill:#333333" data-old_color="#000000"/></g> </svg>
