<svg xmlns="http://www.w3.org/2000/svg" height="512" viewBox="0 -44 511.999 511" width="512"><path d="M218.844 358.691H166.53c-9.992 0-18.09 8.098-18.09 18.09 0 9.989 8.098 18.09 18.09 18.09h52.317c-6.371-10.984-6.598-24.805-.004-36.18zm111.23 0h-48.699c6.367 10.98 6.598 24.801 0 36.18h48.7c9.991 0 18.09-8.101 18.09-18.09 0-9.992-8.099-18.09-18.09-18.09zm0 0" fill="#fff" data-original="#6AB6FF" data-old_color="#ffffff"/><path d="M250.11 340.652c-28.048 0-45.02 30.496-31.266 54.22 6.25 10.776 17.906 18.034 31.265 18.034s25.016-7.258 31.266-18.035c14.043-24.215-3.672-54.219-31.266-54.219zm0 0" fill="#fff" data-original="#9BDCFF" data-old_color="#ffffff"/><path d="M241.77 39.254c-37.391 0-71.614 20.476-89.32 53.437-2.614 4.868-.786 10.93 4.077 13.543 4.844 2.602 10.918.809 13.543-4.078 14.215-26.465 41.688-42.902 71.7-42.902 5.52 0 9.996-4.48 9.996-10 0-5.524-4.477-10-9.996-10zM281 43.973c-5.523 0-10 4.476-10 10 0 5.52 4.477 9.996 10 9.996h.023c5.524 0 9.989-4.477 9.989-9.996 0-5.524-4.492-10-10.012-10zm0 0" data-original="#000000" data-old_color="#000000" fill="#333"/><path d="M380.926 81.992c-7.875 1.43-15.832-2.035-20.192-8.75-24.539-37.797-67.09-62.812-115.511-62.812-58.36 0-108.211 36.328-128.239 87.597-2.828 7.246-9.96 12.524-18.918 12.524-48.62 0-88.039 39.418-88.039 88.039 0 17.328 5.008 33.484 13.653 47.101 6.007 9.47 16.593 15.043 27.808 15.043H452.48c10.063 0 19.567-4.535 25.985-12.289 15.058-18.195 23.969-41.664 23.52-67.23-1.098-62.707-58.505-110.582-121.06-99.223zM241.77 59.254c-30.012 0-57.485 16.437-71.7 42.902-2.62 4.88-8.691 6.684-13.543 4.078-4.863-2.613-6.691-8.675-4.078-13.543 17.707-32.96 51.934-53.437 89.32-53.437 5.52 0 9.997 4.476 9.997 10 0 5.52-4.477 10-9.996 10zm39.253 4.715H281c-5.523 0-10-4.477-10-9.996 0-5.524 4.477-10 10-10 5.52 0 10.012 4.476 10.012 10 0 5.52-4.465 9.996-9.989 9.996zm0 0" fill="#fff" data-original="#D4FFFF" class="active-path" data-old_color="#ffffff"/><path d="M379.14 72.152c-3.91.711-7.843-1-10.019-4.355C303.695-32.984 151.45-17.687 107.671 94.39c-1.464 3.746-5.16 6.16-9.437 6.16h-.168c-77.695 0-123.707 86.094-82.828 150.5 7.82 12.324 21.371 19.683 36.25 19.683h188.625v61.028c-10.73 2.379-20.058 8.504-26.55 16.93H166.53c-11.969 0-22.207 7.523-26.246 18.09H40.367c-5.523 0-10 4.48-10 10 0 5.523 4.477 10 10 10h99.918c4.04 10.562 14.277 18.09 26.246 18.09h47.031c18.504 24.023 54.56 24.065 73.098 0h43.414c11.969 0 22.207-7.528 26.246-18.09h103.535c5.524 0 10-4.477 10-10 0-5.52-4.476-10-10-10H356.32c-4.039-10.567-14.277-18.09-26.246-18.09H286.66c-6.492-8.426-15.82-14.551-26.55-16.93v-61.028h192.37c13.04 0 25.32-5.8 33.688-15.914 17.117-20.687 26.285-46.89 25.812-73.78-1.19-68.278-63.93-121.411-132.84-108.888zm-174.437 312.72h-38.172c-4.46 0-8.094-3.63-8.094-8.09s3.633-8.094 8.094-8.094h38.172a46.516 46.516 0 0 0 0 16.183zm90.817-16.185h34.554c4.461 0 8.094 3.633 8.094 8.094s-3.633 8.09-8.094 8.09H295.52a46.44 46.44 0 0 0 0-16.184zm-20.192 14.915c-3.023 11.183-13.254 19.304-25.219 19.304-13.664 0-25.03-10.578-26.047-24.183-1.113-15.258 10.985-28.07 26.047-28.07 17.356 0 29.735 16.69 25.22 32.949zm195.43-141.532c-4.555 5.504-11.215 8.664-18.278 8.664H51.488c-7.875 0-15.297-3.988-19.367-10.398C-.465 188.988 36.31 120.55 98.066 120.55h.184c12.563 0 23.566-7.406 28.05-18.883 9.247-23.672 25.2-43.887 46.141-58.457 21.418-14.902 46.586-22.781 72.786-22.781 43.394 0 83.437 21.777 107.12 58.258 6.583 10.14 18.512 15.3 30.368 13.144 56.863-10.324 108.293 33.55 109.273 89.559.387 22.117-7.152 43.668-21.23 60.68zm0 0" data-original="#000000" data-old_color="#000000" fill="#333"/><path d="M220.383 133.355c-10.957-10.007-27.488-10.007-38.446 0l-23.16 21.153c-4.078 3.726-4.363 10.05-.64 14.129 3.722 4.074 10.047 4.363 14.125.64l18.898-17.257v51.804c0 5.524 4.477 10 10 10 5.52 0 10-4.476 10-10v-51.808l18.895 17.261a9.968 9.968 0 0 0 6.742 2.614 9.972 9.972 0 0 0 7.387-3.254c3.722-4.078 3.437-10.403-.641-14.13zm119.383 37.09l-18.899 17.262v-51.809c0-5.52-4.476-10-10-10-5.52 0-9.996 4.48-9.996 10v51.809l-18.898-17.262c-4.075-3.722-10.403-3.437-14.13.64-3.722 4.08-3.437 10.403.641 14.13l23.16 21.152c10.958 10.008 27.489 10.008 38.45 0l23.16-21.152c4.078-3.727 4.363-10.05.637-14.13-3.723-4.077-10.051-4.366-14.125-.64zm0 0" data-original="#000000" data-old_color="#000000" fill="#333"/></svg>