<svg xmlns="http://www.w3.org/2000/svg" width="512" height="512"><path d="M146.097 375.467c-81.129 10.075-137.563 38.102-137.563 64 0 35.346 105.064 64 234.667 64s234.667-28.654 234.667-64c0-25.898-56.434-53.925-137.563-64" data-original="#A4C2F7" data-old_color="#ffffff" fill="#fff"/><path d="M358.4 375.467h-18.096c81.129 10.075 137.563 38.102 137.563 64 0 34.775-101.723 63.054-228.436 63.956 2.19.015 4.366.044 6.57.044 136.672 0 247.467-28.654 247.467-64-.001-25.898-59.514-53.925-145.068-64z" data-original="#7FACFA" data-old_color="#ffffff" fill="#fff"/><path d="M153.6 375.467h18.096c-81.129 10.075-137.563 38.102-137.563 64 0 34.775 101.723 63.054 228.436 63.956-2.19.015-4.366.044-6.57.044-136.672 0-247.467-28.654-247.467-64 .001-25.898 59.514-53.925 145.068-64z" data-original="#FFFFFF" fill="#fff"/><path d="M254.491 452.267l-124.086-179.2c-46.313-61.751-40.173-164.523 14.408-219.103 60.573-60.573 158.781-60.573 219.354 0 54.581 54.581 60.722 157.352 14.409 219.103l-124.085 179.2z" data-original="#A4C2F7" data-old_color="#ffffff" fill="#fff"/><path d="M252.982 452.267l-116.809-179.2C89.86 211.315 96.001 108.544 150.582 53.963c60.573-60.573 124.395-60.573 184.969 0 54.581 54.581 60.722 157.352 14.409 219.103l-96.978 179.201z" data-original="#E3E7F2" data-old_color="#ffffff" fill="#fff"/><circle cx="256" cy="162.133" r="51.2" data-original="#7FACFA" data-old_color="#ffffff" fill="#fff"/><ellipse cx="240.213" cy="162.133" rx="38.4" ry="51.2" data-original="#A4C2F7" data-old_color="#ffffff" fill="#fff"/><path d="M144.814 53.963A154.517 154.517 0 0 1 260.894 8.84c-29.422 1.542-58.806 16.467-87.462 45.123-54.581 54.582-60.722 157.352-14.408 219.104l96.315 177.977-.847 1.223-124.086-179.2c-46.314-61.752-40.173-164.523 14.408-219.104z" data-original="#FFFFFF" fill="#fff"/><path d="M256 221.867c-32.99 0-59.733-26.744-59.733-59.733S223.01 102.4 256 102.4s59.733 26.744 59.733 59.733c-.038 32.974-26.759 59.695-59.733 59.734zm0-102.4c-23.564 0-42.667 19.103-42.667 42.667S232.436 204.8 256 204.8s42.667-19.103 42.667-42.667c-.028-23.552-19.114-42.639-42.667-42.666z" data-original="#428DFF" class="active-path" data-old_color="#428DFF" fill="#333"/><path d="M254.492 460.8a8.543 8.543 0 0 1-7.017-3.675l-124.088-179.2c-48.908-65.208-41.804-172.8 15.392-229.992a163.629 163.629 0 0 1 231.421 0c57.2 57.192 64.304 164.792 15.2 230.25L261.508 457.125a8.54 8.54 0 0 1-7.016 3.675zm0-443.733A145.632 145.632 0 0 0 150.846 60c-51.621 51.617-57.983 148.792-13.617 207.95l117.263 169.325 117.067-169.067c44.563-59.417 38.2-156.592-13.425-208.208a145.62 145.62 0 0 0-103.642-42.933z" data-original="#428DFF" class="active-path" data-old_color="#428DFF" fill="#333"/><path d="M256 512C87.933 512 0 475.508 0 439.467c0-32.092 62.754-61.892 152.6-72.475 4.681-.552 8.923 2.794 9.475 7.475s-2.794 8.923-7.475 9.475c-89.738 10.567-137.533 39.033-137.533 55.525 0 23.158 90.9 55.467 238.933 55.467s238.933-32.308 238.933-55.467c0-16.492-47.796-44.958-137.533-55.525a8.533 8.533 0 0 1-7.475-9.475 8.533 8.533 0 0 1 9.475-7.475c89.846 10.583 152.6 40.383 152.6 72.475C512 475.508 424.067 512 256 512z" data-original="#428DFF" class="active-path" data-old_color="#428DFF" fill="#333"/></svg>