<svg xmlns="http://www.w3.org/2000/svg" height="512" viewBox="-15 0 494 494.944" width="512"><path d="M176.473 358.945v-24c0-22.379 13.129-41.664 32.093-50.625 4.77-2.257 7.907-6.93 7.907-12.199 0-5.273-3.137-9.945-7.907-12.2-18.964-8.968-32.093-28.257-32.093-50.624v-34.352h112v34.352c0 22.375-13.13 41.664-32.098 50.625-4.766 2.254-7.902 6.926-7.902 12.2 0 5.269 3.136 9.94 7.902 12.198 18.969 8.961 32.098 28.246 32.098 50.625v24zm0 0" fill="#fff" data-original="#E6E9ED" data-old_color="#ffffff"/><path d="M408.473 262.945c0 97.2-78.801 176-176 176-97.2 0-176-78.8-176-176 0-97.203 78.8-176 176-176v24l72-48-72-48v24c-123.711 0-224 100.285-224 224 0 123.711 100.289 224 224 224 123.71 0 224-100.289 224-224zm0 0" fill="#fff" data-original="#FF826E" data-old_color="#ffffff"/><path d="M176.473 174.945h112v24h-112zm0 0" fill="#fff" data-original="#CCD1D9" data-old_color="#ffffff"/><path d="M296.473 182.945h-128c-4.418 0-8-3.586-8-8v-16a8 8 0 0 1 8-8h128c4.414 0 8 3.582 8 8v16c0 4.414-3.586 8-8 8zm0 0" fill="#fff" data-original="#FCD770" data-old_color="#ffffff"/><path d="M176.473 342.945h112v16h-112zm0 0" fill="#fff" data-original="#CCD1D9" data-old_color="#ffffff"/><path d="M296.473 390.945h-128c-4.418 0-8-3.586-8-8v-16a8 8 0 0 1 8-8h128c4.414 0 8 3.582 8 8v16c0 4.414-3.586 8-8 8zm0 0" fill="#fff" data-original="#FCD770" data-old_color="#ffffff"/><path d="M448.473 262.945c0 119.102-96.899 216-216 216-119.106 0-216-96.898-216-216 0-119.105 96.894-216 216-216h8V29.887l49.574 33.058L240.473 96V78.945h-8c-101.465 0-184 82.535-184 184 0 101.461 82.535 184 184 184s184-82.539 184-184h-16c0 92.63-75.368 168-168 168-92.633 0-168-75.37-168-168 0-89.953 71.062-163.625 160-167.816v30.758l94.422-62.942L224.473 0v31.078c-124.235 4.235-224 106.617-224 231.867 0 127.918 104.078 232 232 232 127.918 0 232-104.082 232-232zm0 0" data-original="#000000" class="active-path" data-old_color="#000000" fill="#333"/><path d="M259.793 267.152c22.277-10.535 36.68-33.25 36.68-57.855v-18.352c8.824 0 16-7.175 16-16v-16c0-8.824-7.176-16-16-16h-128c-8.825 0-16 7.176-16 16v16c0 8.825 7.175 16 16 16v18.352c0 24.605 14.398 47.32 36.687 57.855 2.04.97 3.313 2.871 3.313 4.961 0 2.102-1.274 4-3.313 4.965-22.289 10.54-36.687 33.25-36.687 57.867v16c-8.825 0-16 7.176-16 16v16c0 8.825 7.175 16 16 16h128c8.824 0 16-7.175 16-16v-16c0-8.824-7.176-16-16-16v-16c0-24.617-14.403-47.328-36.688-57.855-2.043-.977-3.312-2.875-3.312-4.977 0-2.09 1.27-3.992 3.32-4.96zm-91.32-108.207h128l.015 16H168.473zm128.015 224H168.473v-16h128zm-43.527-91.394c16.703 7.898 27.512 24.93 27.512 43.394v16h-96v-16c0-18.465 10.808-35.496 27.511-43.394 7.59-3.574 12.489-11.207 12.489-19.438 0-8.234-4.899-15.847-12.48-19.433-16.72-7.903-27.52-24.938-27.52-43.39v-18.345h96v18.352c0 18.457-10.809 35.488-27.512 43.39-7.594 3.579-12.488 11.2-12.488 19.426 0 8.223 4.894 15.864 12.488 19.438zm139.699-79.813l15.453-4.14 4.14 15.453-15.452 4.14zm-18.683-39.711l13.855-8 8 13.86-13.86 7.996zm-28.367-33.539l11.312-11.312 11.312 11.312-11.312 11.313zm-36.07-25.05l7.995-13.856 13.86 7.996-8 13.86zm133.214 99.515l15.683-3.117 3.118 15.684-15.684 3.117zm-13.797-40.039l14.79-6.125 6.12 14.781-14.789 6.125zm-21.336-36.605l13.3-8.891 8.892 13.293-13.301 8.894zm-28.074-31.754l11.312-11.317 11.313 11.317-11.313 11.312zm-33.731-25.657l8.895-13.3 13.293 8.89-8.89 13.301zm0 0" data-original="#000000" class="active-path" data-old_color="#000000" fill="#333"/></svg>