<svg xmlns="http://www.w3.org/2000/svg" viewBox="0 0 512.001 512.001" width="512" height="512"><path data-original="#FFFFFF" data-old_color="#ffffff" fill="#fff" d="M244.54 299.869L160.06 503.83l-20.186-36.657 55.93-202.702z"/><path data-original="#FFFFFF" data-old_color="#ffffff" fill="#fff" d="M147.859 226.413L51.571 458.894l72.214-20.927 16.089 29.206 77.759-187.752zm119.601 73.456l84.48 203.961 20.186-36.657-55.93-202.702z"/><path data-original="#FFFFFF" data-old_color="#ffffff" fill="#fff" d="M364.141 226.413l-69.773 53.008 77.758 187.752 16.09-29.206 72.214 20.927z"/><path d="M256 8.17l-54.468 156.453L256 321.076c86.406 0 156.453-70.046 156.453-156.453S342.406 8.17 256 8.17z" data-original="#FFFFFF" data-old_color="#ffffff" fill="#fff"/><path d="M99.547 164.623c0 86.406 70.046 156.453 156.453 156.453V8.17c-86.406 0-156.453 70.046-156.453 156.453zM256 40.851v247.547c68.249 0 123.773-55.525 123.773-123.773S324.249 40.851 256 40.851z" data-original="#FFFFFF" data-old_color="#ffffff" fill="#fff"/><path d="M256 40.851c-68.248 0-123.773 55.525-123.773 123.773S187.752 288.398 256 288.398c56.233 0 101.986-55.525 101.986-123.773S312.233 40.851 256 40.851z" data-original="#FFFFFF" data-old_color="#ffffff" fill="#fff"/><path data-original="#FFFFFF" data-old_color="#ffffff" fill="#fff" d="M256 73.532l27.644 53.042 58.989 9.9-41.903 42.682 8.813 59.16L256 211.653l-53.542 26.663 8.813-59.16-41.903-42.682 58.989-9.9z"/><path d="M467.98 455.765l-67.783-163.642a8.171 8.171 0 0 0-15.097 6.253l61.278 147.936-55.894-16.196a8.17 8.17 0 0 0-9.43 3.906l-28.072 50.974-65.751-158.737c75.888-14.634 133.389-81.542 133.389-161.637C420.623 73.85 346.774 0 256 0S91.377 73.85 91.377 164.623c0 36.767 12.118 70.755 32.568 98.186L44.02 455.765a8.168 8.168 0 0 0 1.461 8.575 8.173 8.173 0 0 0 8.362 2.399l65.942-19.108 33.117 60.14a8.172 8.172 0 0 0 14.705-.815l63.331-152.894a8.17 8.17 0 1 0-15.097-6.253l-56.827 137.19-28.07-50.974a8.17 8.17 0 0 0-9.431-3.906L65.62 446.315l70.152-169.362c30.064 32.158 72.835 52.295 120.226 52.295 4.891 0 9.731-.228 14.516-.647l73.878 178.358a8.17 8.17 0 0 0 14.704.815l33.118-60.14 65.942 19.109a8.173 8.173 0 0 0 9.824-10.978zM107.718 164.623C107.718 82.86 174.237 16.34 256 16.34s148.282 66.52 148.282 148.283S337.762 312.906 256 312.906c-81.763-.001-148.282-66.52-148.282-148.283z" data-original="#333333" class="active-path" data-old_color="#000000" fill="#333"/><path d="M350.403 133.949a8.168 8.168 0 0 0-6.419-5.533l-54.977-9.226-25.762-49.434a8.17 8.17 0 0 0-14.49 0l-25.763 49.434-54.976 9.226a8.17 8.17 0 0 0-4.479 13.782l39.054 39.778-8.214 55.137a8.17 8.17 0 0 0 11.724 8.518L256 220.78l49.9 24.85a8.168 8.168 0 0 0 8.445-.703 8.17 8.17 0 0 0 3.279-7.814l-8.213-55.137 39.054-39.779a8.169 8.169 0 0 0 1.938-8.248zm-55.504 39.483a8.169 8.169 0 0 0-2.251 6.927l6.503 43.655-39.509-19.675a8.167 8.167 0 0 0-7.285 0l-39.509 19.675 6.503-43.655a8.164 8.164 0 0 0-2.251-6.927l-30.922-31.496 43.528-7.305a8.17 8.17 0 0 0 5.893-4.281L256 91.21l20.398 39.141a8.172 8.172 0 0 0 5.893 4.281l43.529 7.305-30.921 31.495z" data-original="#333333" class="active-path" data-old_color="#000000" fill="#333"/><path d="M379.765 172.864c-4.474-.598-8.581 2.552-9.172 7.026-7.579 57.2-56.843 100.335-114.593 100.335-63.743 0-115.602-51.858-115.602-115.602 0-63.743 51.859-115.602 115.602-115.602 57.75 0 107.013 43.134 114.592 100.335.592 4.474 4.706 7.627 9.172 7.026a8.17 8.17 0 0 0 7.025-9.172C378.141 81.918 321.913 32.681 256 32.681c-72.753 0-131.942 59.189-131.942 131.942S183.246 296.566 256 296.566c65.913 0 122.14-49.237 130.791-114.529a8.17 8.17 0 0 0-7.026-9.173z" data-original="#333333" class="active-path" data-old_color="#000000" fill="#333"/></svg>