<svg xmlns="http://www.w3.org/2000/svg" viewBox="0 0 469.333 469.333" width="512" height="512"><path d="M213.334 355.555c-23.566 0-42.666-19.1-42.666-42.666V256c0-23.566 19.1-42.666 42.666-42.666 8.576-.085 85.334-14.208 85.334-71.098 0-28.445-28.445-56.902-71.112-56.902-34.716 0-56.888 28.459-56.888 42.681 0 23.553-19.1 42.666-42.667 42.666s-42.667-19.115-42.667-42.667C85.334 58.624 150.47 0 227.555 0 341.334 0 384 85.078 384 156.459c0 58.937-32.384 104.007-91.207 126.862-12.8 4.978-25.458 8.349-36.793 10.624v18.944c0 23.566-19.1 42.666-42.666 42.666M256 426.666c0 23.567-19.1 42.667-42.666 42.667s-42.666-19.1-42.666-42.667S189.768 384 213.334 384 256 403.1 256 426.666" data-original="#BE1931" class="active-path" data-old_color="#ff9800" fill="#ff9800"/></svg>