<svg width="190" height="32" fill="none" xmlns="http://www.w3.org/2000/svg"><path d="M10.437 26.1a14.49 14.49 0 0 0 7.337-1.96 4.15 4.15 0 0 0 .399-.241L8.157 13.878.034 5.77A6.507 6.507 0 0 0 0 6.44v15.27a14.596 14.596 0 0 0 10.437 4.39z" fill="#fff"/><path fill-rule="evenodd" clip-rule="evenodd" d="M11.7 12.67a6.552 6.552 0 0 1 6.36-4.996 6.552 6.552 0 0 1 6.54 6.54 6.35 6.35 0 0 1-.297 1.943 5.35 5.35 0 0 1-.225.618 14.596 14.596 0 0 1-3.262 5.002L19.61 20.57l-7.91-7.9zm5.366.703c0 1.054.855 1.908 1.909 1.908h-.006a1.908 1.908 0 1 0-1.903-1.908z" fill="#fff"/><path d="M9.83 0v8.696a9.909 9.909 0 0 1 18.089 4.632l2.459 1.83a.443.443 0 0 1-.062.758l-2.757 1.19-.123.365a18.06 18.06 0 0 1-6.832 8.842A17.965 17.965 0 0 1 0 26.116v5.323h25a6.44 6.44 0 0 0 6.439-6.44V0H9.83zM6.467 7.444V0a6.422 6.422 0 0 0-5.041 2.403l5.041 5.041z" fill="#fff"/><path fill-rule="evenodd" clip-rule="evenodd" d="M56.526 18.285a9.437 9.437 0 0 0 4.94-1.263v-3.604a7.45 7.45 0 0 1-4.766 1.515 5.889 5.889 0 0 1-4.244-1.588 5.429 5.429 0 0 1-1.684-4.093 5.423 5.423 0 0 1 1.64-4.07 5.749 5.749 0 0 1 4.142-1.611 8.028 8.028 0 0 1 4.565 1.341V1.308A9.65 9.65 0 0 0 56.526.213a9.46 9.46 0 0 0-6.737 2.532 8.607 8.607 0 0 0-2.655 6.501 8.612 8.612 0 0 0 2.678 6.501 9.398 9.398 0 0 0 6.714 2.538zm12.559-4.963a5.114 5.114 0 0 0 3.846 1.611 5.052 5.052 0 0 0 3.823-1.61 5.681 5.681 0 0 0 1.538-4.071 5.681 5.681 0 0 0-1.538-4.07A5.053 5.053 0 0 0 72.93 3.57a5.114 5.114 0 0 0-3.845 1.61 5.665 5.665 0 0 0-1.516 4.07 5.664 5.664 0 0 0 1.516 4.071zm-2.61-10.476a8.758 8.758 0 0 0-2.555 6.406 8.842 8.842 0 0 0 2.577 6.405 9.201 9.201 0 0 0 12.884 0 8.864 8.864 0 0 0 2.582-6.405 8.78 8.78 0 0 0-2.604-6.406 9.201 9.201 0 0 0-12.885 0zm16.954 14.945c.47.169.967.245 1.465.224 2.06 0 3.475-.769 4.295-2.307.82-1.538 1.263-4.368 1.392-8.421l.101-3.526h5.26v14.176h3.549V.56H87.23l-.074 5.087c-.05 3.525-.247 5.934-.56 7.197-.315 1.263-.944 1.909-1.887 1.909-.43.007-.857-.06-1.263-.197l-.017 3.234zm28.317-2.88A5.115 5.115 0 0 1 107.9 13.3l.006.022a5.66 5.66 0 0 1-1.521-4.093 5.662 5.662 0 0 1 1.515-4.07 5.115 5.115 0 0 1 3.846-1.61 5.053 5.053 0 0 1 3.823 1.61 5.678 5.678 0 0 1 1.538 4.07 5.678 5.678 0 0 1-1.538 4.07 5.053 5.053 0 0 1-3.823 1.612zm-9.011-5.66a8.759 8.759 0 0 1 2.555-6.405 9.201 9.201 0 0 1 12.884 0 8.776 8.776 0 0 1 2.582 6.406 8.864 8.864 0 0 1-2.582 6.405 9.201 9.201 0 0 1-12.884 0 8.842 8.842 0 0 1-2.555-6.405zm21.255 8.686h8.736a6.603 6.603 0 0 0 4.39-1.359 4.45 4.45 0 0 0 1.639-3.576 4.599 4.599 0 0 0-1.044-3.104 4.357 4.357 0 0 0-2.482-1.539 3.598 3.598 0 0 0 2.184-3.452c0-2.78-2.082-4.346-5.26-4.346h-8.163v17.376zm3.565-7.618v4.541h4.491c1.763 0 2.807-.791 2.807-2.245 0-1.454-1.066-2.285-2.807-2.285l-4.491-.011zm0-2.953V3.542h4.025c1.471 0 2.375.747 2.375 1.937s-.893 1.887-2.38 1.887h-4.02zm21.592 10.57h-7.388V.562h3.576v5.732h3.823c2.058 0 3.696.547 4.912 1.64a5.323 5.323 0 0 1 1.813 4.193 5.323 5.323 0 0 1-1.813 4.194 7.19 7.19 0 0 1-4.912 1.617h-.011zm-3.823-3.149V9.325h3.621c2.082 0 3.323 1.044 3.323 2.756 0 1.713-1.241 2.706-3.323 2.706h-3.621zm26.296 3.15v-3.2h-9.46v-4.491h7.382V7.113h-7.382V3.745h9.185V.56h-12.756v17.376h13.031zm2.852 0h8.735a6.602 6.602 0 0 0 4.396-1.359 4.45 4.45 0 0 0 1.639-3.576 4.599 4.599 0 0 0-1.044-3.104 4.357 4.357 0 0 0-2.482-1.539 3.598 3.598 0 0 0 2.184-3.452c0-2.78-2.082-4.346-5.26-4.346h-8.168v17.376zm3.576-7.618v4.541h4.491c1.763 0 2.807-.791 2.807-2.245 0-1.454-1.067-2.285-2.807-2.285l-4.491-.011zm0-2.953V3.542h4.019c1.511 0 2.381.747 2.381 1.937s-.893 1.887-2.381 1.887h-4.019zM48.161 31.652l4.295-5.732v5.732h1.224v-7.77h-1.067l-4.272 5.704v-5.704h-1.224v7.77h1.044zm11.79-6.647v6.647h-1.218v-7.77h6.315v7.77h-1.223v-6.647H59.95zm7.607 6.647h-1.314l3.397-7.815h1.179l3.396 7.815h-1.291l-.842-1.931h-3.689l-.836 1.93zm1.257-3.02l1.42-3.257 1.421 3.257h-2.84zm7.849 3.02H75.44v-7.77h3.368c.691-.04 1.37.187 1.898.634a2.06 2.06 0 0 1 .696 1.617 2.172 2.172 0 0 1-.702 1.684 2.644 2.644 0 0 1-1.897.646H76.68l-.017 3.189zm0-4.334v-2.319l2.02-.005c.905 0 1.466.41 1.466 1.156 0 .747-.544 1.168-1.465 1.168h-2.021zm5.53-2.319h2.576v6.653h1.224v-6.647h2.577v-1.123h-6.377V25zm8.915 3.071v3.582h-1.224v-7.77h1.224v3.065h4.053v-3.065h1.224v7.775h-1.224V28.07H91.11zm12.878 3.582v-1.123h-4.452V28.07h3.509v-1.123h-3.509v-1.942h4.323v-1.123h-5.53v7.77h5.659zm1.443 0h1.224l.011-3.183h2.134a2.644 2.644 0 0 0 1.897-.646c.47-.431.726-1.047.702-1.684a2.06 2.06 0 0 0-.702-1.622 2.688 2.688 0 0 0-1.897-.635h-3.369v7.77zm1.224-6.653v2.319h2.021c.921 0 1.465-.421 1.465-1.168 0-.746-.561-1.156-1.465-1.156l-2.021.005zm14.282-1.117v7.77h-1.224v-7.77h1.224zm-5.187 7.77h-2.964v-7.77h1.223v2.69h1.746a3.038 3.038 0 0 1 2.134.712 2.55 2.55 0 0 1 0 3.677c-.6.494-1.364.741-2.139.69zm-1.746-1.123v-2.84h1.684c1.078 0 1.735.544 1.735 1.431s-.612 1.41-1.735 1.41h-1.684z" fill="#fff"/></svg>