<svg width="64" height="71" fill="none" xmlns="http://www.w3.org/2000/svg"><path d="M13.803 13.693l-4.62-4.486A31.365 31.365 0 0 1 25.959.468v25.365l-8.84-8.832-3.315-3.308zM28.305 34.79L42.24 48.701s-.374.242-.554.336a20.162 20.162 0 0 1-10.205 2.754c-11.246-.013-20.359-9.126-20.372-20.372a20.154 20.154 0 0 1 3.075-10.735L28.305 34.79z" fill="#333"/><path fill-rule="evenodd" clip-rule="evenodd" d="M33.238 33.105a9.113 9.113 0 0 1 8.848-6.952 9.113 9.113 0 0 1 9.105 9.105 8.837 8.837 0 0 1-.413 2.7 7.523 7.523 0 0 1-.313.858 20.287 20.287 0 0 1-4.54 6.96l-1.678-1.678-11.009-10.993zm7.655 1.997a2.66 2.66 0 0 0 2.465 1.638 2.653 2.653 0 0 0 2.653-2.652 2.66 2.66 0 1 0-5.118 1.014z" fill="#333"/><path d="M62.8 31.404C62.636 49.006 48.662 62.933 31.396 62.8A31.404 31.404 0 0 1 6.124 12.764l4.682 4.534c-6.786 9.948-5.53 23.317 2.989 31.829 8.519 8.511 21.89 9.755 31.832 2.96a25.13 25.13 0 0 0 9.518-12.304l.164-.499 3.839-1.662a.609.609 0 0 0 .125-1.053l-3.425-2.544a13.779 13.779 0 0 0-25.17-6.444V0h.78A31.303 31.303 0 0 1 62.8 31.404z" fill="#333"/><path fill-rule="evenodd" clip-rule="evenodd" d="M26.527 62.417h9.363l-4.681 8.176-4.682-8.176z" fill="#333"/></svg>