<svg xmlns="http://www.w3.org/2000/svg" width="84" height="84" fill="none"><path clip-rule="evenodd" d="M76.53 17.528v25.285c4.169.704 7.358 4.33 7.358 8.697 0 4.87-3.96 8.83-8.83 8.83-4.367 0-7.994-3.189-8.698-7.358H52.982V66.36c4.17.704 7.359 4.33 7.359 8.698 0 4.87-3.961 8.83-8.83 8.83-4.368 0-7.994-3.189-8.698-7.359H17.528c-.704 4.17-4.33 7.36-8.698 7.36-4.87 0-8.83-3.962-8.83-8.831 0-4.368 3.19-7.994 7.359-8.698V41.075C3.189 40.371 0 36.745 0 32.378c0-4.87 3.96-8.83 8.83-8.83 4.367 0 7.994 3.189 8.698 7.358h13.378V17.528c-4.17-.704-7.358-4.33-7.358-8.698 0-4.869 3.96-8.83 8.83-8.83 4.367 0 7.993 3.19 8.697 7.359H66.36C67.064 3.189 70.69 0 75.058 0c4.869 0 8.83 3.961 8.83 8.83 0 4.367-3.189 7.994-7.359 8.698zm4.415-8.698a5.893 5.893 0 0 0-5.887-5.886A5.893 5.893 0 0 0 69.17 8.83a5.893 5.893 0 0 0 5.887 5.887 5.893 5.893 0 0 0 5.886-5.887zm-54.454 0a5.893 5.893 0 0 1 5.886-5.886 5.893 5.893 0 0 1 5.887 5.886 5.893 5.893 0 0 1-5.887 5.887 5.893 5.893 0 0 1-5.886-5.887zm16.322 25.02h-8.964v8.963a8.84 8.84 0 0 1 7.226 7.226h8.964v-8.964a8.84 8.84 0 0 1-7.226-7.226zM32.378 45.623a5.893 5.893 0 0 1 5.887 5.887 5.893 5.893 0 0 1-5.887 5.887 5.893 5.893 0 0 1-5.887-5.887 5.893 5.893 0 0 1 5.887-5.887zM8.83 26.491a5.893 5.893 0 0 0-5.886 5.887 5.893 5.893 0 0 0 5.886 5.887 5.893 5.893 0 0 0 5.887-5.887A5.893 5.893 0 0 0 8.83 26.49zm0 54.454a5.893 5.893 0 0 1-5.886-5.887A5.893 5.893 0 0 1 8.83 69.17a5.893 5.893 0 0 1 5.887 5.887 5.893 5.893 0 0 1-5.887 5.886zm8.698-7.359h25.285a8.839 8.839 0 0 1 7.225-7.226V52.982h-8.963c-.704 4.17-4.33 7.359-8.697 7.359-4.87 0-8.83-3.961-8.83-8.83 0-4.368 3.189-7.994 7.358-8.698v-8.964H17.528a8.84 8.84 0 0 1-7.226 7.226V66.36a8.84 8.84 0 0 1 7.226 7.226zm39.869 1.472a5.893 5.893 0 0 1-5.887 5.886 5.893 5.893 0 0 1-5.887-5.886 5.893 5.893 0 0 1 5.887-5.887 5.893 5.893 0 0 1 5.887 5.887zm-11.774-42.68a5.893 5.893 0 0 0 5.887 5.887 5.893 5.893 0 0 0 5.887-5.887 5.893 5.893 0 0 0-5.887-5.887 5.893 5.893 0 0 0-5.887 5.887zm20.737 17.66H52.982v-8.963c4.17-.704 7.359-4.33 7.359-8.697 0-4.87-3.961-8.83-8.83-8.83-4.368 0-7.994 3.189-8.698 7.358h-8.964V17.528a8.84 8.84 0 0 0 7.226-7.226H66.36a8.84 8.84 0 0 0 7.226 7.226v25.285a8.838 8.838 0 0 0-7.226 7.226zm2.811 1.472a5.893 5.893 0 0 0 5.887 5.887 5.893 5.893 0 0 0 5.886-5.887 5.893 5.893 0 0 0-5.886-5.887 5.893 5.893 0 0 0-5.887 5.887z"/></svg>