<svg width="1279" height="430" fill="none" xmlns="http://www.w3.org/2000/svg"><g opacity=".215" fill-rule="evenodd" clip-rule="evenodd" fill="#fff"><path d="M935.158 457.348l164.272-86.086-164.272 86.086z"/><path d="M1099.3 371.009l.26.505-164.273 86.084-.263-.501 164.276-86.088z"/><path d="M935.158 457.348l164.272-86.086-164.272 86.086z"/><path d="M1099.3 371.009l.26.505-164.273 86.084-.263-.501 164.276-86.088zm-275.173-58.648l111.031 144.986-111.031-144.986z"/><path d="M824.351 312.188l111.031 144.986-.452.347-111.027-144.989.448-.344zm-.224.173l111.031 144.986-111.031-144.986z"/><path d="M824.351 312.188l111.031 144.986-.452.347-111.027-144.989.448-.344z"/><path d="M983.872 251.193l-159.744 61.169 159.744-61.169z"/><path d="M983.771 250.929l.203.529-159.743 61.168-.207-.531 159.747-61.166z"/><path d="M983.872 251.193l-48.714 206.155 48.714-206.155z"/><path d="M983.599 251.129l.551.13-48.72 206.155-.547-.13 48.716-206.155z"/><path d="M983.872 251.193l-48.714 206.155 48.714-206.155z"/><path d="M983.599 251.129l.551.13-48.72 206.155-.547-.13 48.716-206.155z"/><path d="M983.872 251.193l115.558 120.069-115.558-120.069z"/><path d="M984.077 250.997l115.563 120.067-.41.393-115.561-120.065.408-.395zm-320.826 88.549l160.877-27.185-160.877 27.185zm160.829-27.463l.095.555-160.879 27.185-.097-.555 160.881-27.185zM535.226 431.295l128.024-91.75-128.024 91.75z"/><path d="M663.083 339.316l.331.461-128.025 91.747-.329-.458 128.023-91.75zM560.148 482.267L663.25 339.546 560.148 482.267z"/><path d="M663.018 339.38l.461.331-103.097 142.721-.461-.331L663.018 339.38zm124.854-151.617l-124.62 151.782 124.62-151.782z"/><path d="M787.652 187.584l.439.355-124.625 151.787-.436-.362 124.622-151.78z"/><path d="M787.872 187.763l196.001 63.431-196.001-63.431z"/><path d="M787.958 187.493l196.003 63.432-.176.54-195.999-63.433.172-.539z"/><path d="M787.872 187.763l36.256 124.597-36.256-124.597z"/><path d="M788.144 187.681l36.255 124.599-.544.161-36.254-124.599.543-.161zM716.496 14.457L548.82 142.453 716.496 14.457zm-.173-.227l.345.45-167.676 127.997-.344-.448L716.323 14.231zm.173.227l71.377 173.305-71.377-173.305z"/><path d="M716.759 14.35l71.375 173.304-.525.214-71.375-173.303.525-.216zm-.263.107L548.82 142.453 716.496 14.457z"/><path d="M716.323 14.23l.345.45-167.676 127.997-.344-.448L716.323 14.231zm.173.227l71.377 173.305-71.377-173.305z"/><path d="M716.759 14.35l71.375 173.304-.525.214-71.375-173.303.525-.216zM377.745 94.88l171.075 47.573L377.745 94.88zm.078-.273l171.075 47.572-.154.547-171.076-47.574.155-.545z"/><path d="M459.316 268.184L377.744 94.881l81.572 173.303z"/><path d="M378.004 94.758l81.572 173.305-.514.243L377.492 95l.512-.242z"/><path d="M459.316 268.184l89.504-125.731-89.504 125.731z"/><path d="M548.588 142.29l.465.326-89.503 125.731-.461-.326 89.499-125.731zm-89.272 125.894l75.909 163.111-75.909-163.111z"/><path d="M459.575 268.063l75.907 163.111-.512.241-75.907-163.111.512-.241z"/><path d="M459.316 268.184l203.934 71.363-203.934-71.363z"/><path d="M459.411 267.917l203.932 71.363-.186.534-203.931-71.361.185-.536zm252.554-76.757l4.531-176.702-4.531 176.702zm4.249-176.71l.567.014-4.534 176.704-.565-.018 4.532-176.7zm-4.249 176.71l4.531-176.702-4.531 176.702z"/><path d="M716.214 14.45l.567.014-4.534 176.704-.565-.018 4.532-176.7zm-4.249 176.709l-163.144-48.706 163.144 48.706z"/><path d="M548.902 142.182l163.142 48.706-.159.543-163.146-48.706.163-.543zm163.063 48.978l75.907-3.397-75.907 3.397z"/><path d="M787.859 187.479l.027.566-75.907 3.397-.024-.565 75.904-3.398zm-75.894 3.681l-48.714 148.385 48.714-148.385z"/><path d="M711.696 191.071l.538.177-48.716 148.385-.538-.178 48.716-148.384z"/><path d="M711.965 191.16l112.163 121.2-112.163-121.2z"/><path d="M712.174 190.968l112.163 121.198-.417.386-112.165-121.2.419-.384zM164.751 490.196l18.13-139.322-18.13 139.322zm17.847-139.359l.563.071-18.128 139.324-.565-.073 18.13-139.322zm177.02 67.997l-74.773-75.888 74.773 75.888z"/><path d="M285.044 342.745l74.777 75.891-.401.399-74.778-75.891.402-.399zm74.574 76.089l-176.737-67.959 176.737 67.959z"/><path d="M182.98 350.609l176.74 67.962-.203.531-176.74-67.966.203-.527z"/><path d="M359.618 418.834l99.697-150.65-99.697 150.65z"/><path d="M459.079 268.029l.477.313-99.702 150.649-.473-.311 99.698-150.651z"/><path d="M359.618 418.834l200.529 63.434-200.529-63.434z"/><path d="M359.704 418.565l200.532 63.433-.17.539-200.53-63.432.168-.54z"/><path d="M359.618 418.834l175.609 12.46-175.609-12.46z"/><path d="M359.639 418.552l175.609 12.46-.044.565-175.605-12.458.04-.567zm-213.013-289.69l36.255 222.011-36.255-222.011zm.28-.045l36.255 222.009-.562.092-36.254-222.011.561-.09zM10.672 276.113l135.954-147.252L10.672 276.113z"/><path d="M146.414 128.668l.417.386L10.878 276.308l-.413-.386 135.949-147.254zM10.672 276.113l-62.313 39.647 62.313-39.647z"/><path d="M10.517 275.874l.307.479-62.315 39.645-.302-.477 62.31-39.647zm.155.239l172.209 74.762-172.209-74.762z"/><path d="M10.784 275.852l172.209 74.762-.227.519-172.211-74.76.23-.521zM1058.65 69.96l-74.779 181.233 74.779-181.232z"/><path d="M1058.39 69.851l.52.218-74.772 181.235-.528-.218 74.78-181.235z"/><path d="M875.11 30.315l183.54 39.647-183.54-39.647z"/><path d="M875.17 30.039l183.54 39.645-.12.554L875.049 30.59l.121-.551zm-.06.276L716.495 14.458 875.11 30.315z"/><path d="M716.526 14.175L875.137 30.03l-.053.565-158.613-15.857.055-.564zm158.584 16.14L716.495 14.458 875.11 30.315z"/><path d="M716.526 14.175L875.137 30.03l-.053.565-158.613-15.857.055-.564zm158.584 16.14l-87.238 157.448L875.11 30.315z"/><path d="M874.864 30.177l.492.276-87.233 157.446-.496-.274 87.237-157.448zm435.296 273.122l-210.72 67.961 210.72-67.961zm-.09-.27l.18.538-210.73 67.964-.17-.542 210.72-67.96zm-200.44-133.392l-50.98-99.675 50.98 99.675zm-50.73-99.805l50.98 99.675-.5.26-50.98-99.677.5-.258zm50.73 99.805l-125.758 81.557 125.758-81.557z"/><path d="M1109.48 169.4l.3.476-125.754 81.556-.307-.474L1109.48 169.4z"/><path d="M1109.63 169.637l-10.2 201.624 10.2-201.624z"/><path d="M1109.35 169.624l.56.029-10.19 201.624-.57-.031 10.2-201.622zm60.33-235.589L1294.3 37.11 1169.68-65.965zm.18-.219l124.62 103.076-.36.439L1169.5-65.75l.36-.435zm-.18.219L1058.65 69.961l111.03-135.926z"/><path d="M1169.46-66.145l.43.36L1058.87 70.14l-.44-.36 111.03-135.925zm-313.611-32.67l19.26 129.13-19.26-129.13zm.28-.041l19.26 129.13-.558.084-19.262-129.13.56-.084zm-.28.041l2.266 144.986-2.266-144.986z"/><path d="M856.134-98.82l2.265 144.987-.567.009-2.265-144.987.567-.008z"/><path d="M855.849-98.815L716.496 14.455l139.353-113.27z"/><path d="M855.672-99.035l.353.439L716.677 14.677l-.358-.441 139.353-113.27z"/><path d="M855.849-98.815L716.496 14.455l139.353-113.27z"/><path d="M855.672-99.035l.353.439L716.677 14.677l-.358-.441 139.353-113.27zM489.907-26.32L377.745 94.88l112.162-121.2z"/><path d="M489.7-26.512l.415.384-112.162 121.2-.415-.386L489.7-26.512zm.207.192l58.913 168.774L489.907-26.32z"/><path d="M490.176-26.413l58.911 168.775-.534.185-58.91-168.775.533-.185zm52.98 227.767l168.808-10.194-168.808 10.194zm168.794-10.477l.035.565-168.814 10.197-.031-.569 168.81-10.193z"/><path d="M543.156 201.354l-83.84 66.831 83.84-66.831z"/><path d="M542.98 201.135l.355.439-83.842 66.832-.351-.443 83.838-66.828z"/><path d="M543.156 201.354L377.744 94.881l165.412 106.473z"/><path d="M377.9 94.641l165.41 106.473-.307.479L377.589 95.118l.311-.477zm165.256 106.713l5.663-58.9-5.663 58.9z"/><path d="M548.54 142.426l.565.052-5.668 58.903-.562-.053 5.665-58.902zm-5.384 58.928L663.25 339.545 543.156 201.354z"/><path d="M543.369 201.169l120.094 138.189-.428.372-120.091-138.188.425-.373zM730.09 398.447l-18.125-207.289 18.125 207.289zm-17.843-207.311l18.128 207.284-.565.051-18.127-207.289.564-.046zm17.843 207.311l57.782-210.683-57.782 210.683z"/><path d="M787.601 187.687l.547.148-57.781 210.687-.547-.15 57.781-210.685zm-57.511 210.76l-169.941 83.82 169.941-83.82z"/><path d="M729.968 398.193l.251.507-169.941 83.82-.254-.507 169.944-83.82zm.122.254l-194.864 32.849 194.864-32.849z"/><path d="M730.045 398.169l.097.558-194.869 32.849-.095-.558 194.867-32.849z"/><path d="M730.09 398.447l-66.839-58.901 66.839 58.901z"/><path d="M663.436 339.333l66.844 58.9-.375.426-66.844-58.901.375-.425zm66.654 59.114l94.037-86.086-94.037 86.086z"/><path d="M823.933 312.151l.384.417-94.032 86.088-.384-.419 94.032-86.086zm-93.843 86.296l205.068 58.9-205.068-58.9z"/><path d="M730.172 398.176l205.064 58.9-.159.543-205.064-58.901.159-.542zm-.082.271l205.068 58.9-205.068-58.9z"/><path d="M730.172 398.176l205.064 58.9-.159.543-205.064-58.901.159-.542zM895.504 250.06l-28.327 12.46 28.327-12.46z"/><path d="M895.387 249.802l.232.516-28.325 12.462-.229-.516 28.322-12.462zm.117.259L875.11 30.315l20.394 219.746z"/><path d="M875.39 30.287l20.396 219.748-.567.051L874.83 30.34l.56-.053zm20.114 219.774L858.116 46.173l37.388 203.888z"/><path d="M858.396 46.123l37.383 203.887-.556.101-37.388-203.887.561-.101zm37.108 203.937l-183.538-58.9 183.538 58.9z"/><path d="M712.049 190.89l183.54 58.901-.172.54-183.536-58.902.168-.539zm183.455 59.17l-107.631-62.297 107.631 62.297z"/><path d="M788.014 187.517l107.629 62.298-.282.492-107.631-62.298.284-.492zm107.49 62.543l88.369 1.134-88.369-1.134z"/><path d="M895.508 249.778l88.367 1.134-.004.567-88.372-1.134.009-.567zm-.004.282l-71.376 62.3 71.376-62.3z"/><path d="M895.318 249.847l.371.426-71.378 62.3-.37-.426 71.377-62.3zm.186.213l39.655 207.289-39.655-207.289z"/><path d="M895.78 250.009l39.655 207.284-.556.108-39.655-207.286.556-.106zm-.276.051l39.655 207.289-39.655-207.289z"/><path d="M895.78 250.009l39.655 207.284-.556.108-39.655-207.286.556-.106zm270.5-3.345l-56.65-77.027 56.65 77.027zm-56.42-77.195l56.65 77.027-.46.335-56.65-77.027.46-.335zm56.42 77.195l143.88 56.635-143.88-56.635z"/><path d="M1166.38 246.401l143.89 56.635-.21.525-143.89-56.635.21-.525z"/><path d="M1166.28 246.664L1058.65 69.962l107.63 176.702z"/><path d="M1058.89 69.812l107.63 176.702-.48.296L1058.4 70.108l.49-.296zm107.39 176.852l-182.409 4.53 182.409-4.53z"/><path d="M1166.27 246.379l.01.567-182.402 4.533-.013-.567 182.405-4.533zm.01.285l-66.85 124.597 66.85-124.597z"/><path d="M1166.03 246.53l.5.267-66.85 124.597-.5-.267 66.85-124.597zM971.409 126.596l-75.905 123.465 75.905-123.465zm-.242-.149l.488.298-75.911 123.463-.481-.295 75.904-123.466zm.242.149L867.177 262.521l104.232-135.925z"/><path d="M971.185 126.421l.45.347-104.232 135.925-.45-.346 104.232-135.926z"/><path d="M971.409 126.596l138.221 43.041-138.221-43.041z"/><path d="M971.495 126.324l138.215 43.044-.16.541-138.223-43.044.168-.541zm-.086.272l-96.298-96.28 96.298 96.28z"/><path d="M875.31 30.114l96.3 96.281-.399.401-96.302-96.28.401-.402zm96.099 96.482L857.691 46.172l113.718 80.424z"/><path d="M857.853 45.942l113.722 80.421-.331.463-113.715-80.423.324-.461zm113.556 80.654l87.241-56.636-87.241 56.636z"/><path d="M1058.5 69.722l.3.476-87.236 56.636-.306-.477 87.242-56.635zm-87.091 56.874l-183.536 61.168 183.536-61.168z"/><path d="M971.323 126.327l.176.536-183.536 61.168-.18-.538 183.54-61.166zm.086.269l12.462 124.597-12.462-124.597z"/><path d="M971.693 126.568l12.46 124.599-.562.055-12.463-124.599.565-.055zM318.834 255.726L146.625 128.861l172.209 126.865zm-172.04-127.092l172.209 126.864-.337.454L146.458 129.09l.336-.456zm172.04 127.092l40.783 163.108-40.783-163.108z"/><path d="M319.105 255.656l40.788 163.111-.547.137-40.788-163.111.547-.137zm-.271.07l-33.988 87.219 33.988-87.219z"/><path d="M318.567 255.62l.529.209-33.987 87.218-.53-.205 33.988-87.222zm.267.106L182.88 350.875l135.954-95.149z"/><path d="M318.67 255.491l.323.467-135.954 95.147-.322-.463 135.953-95.151zm.164.235l140.483 12.457-140.483-12.457z"/><path d="M318.856 255.443l140.487 12.458-.053.565-140.481-12.458.047-.565zm-.022.282L377.745 94.88l-58.911 160.845z"/><path d="M377.48 94.784l.532.194-58.915 160.845-.53-.196L377.48 94.784zm719.59 276.477c0-1.303 1.06-2.36 2.36-2.36 1.31 0 2.36 1.057 2.36 2.36a2.354 2.354 0 0 1-2.36 2.358 2.36 2.36 0 0 1-2.36-2.358z"/><path d="M1097.07 371.261c0-1.303 1.06-2.36 2.36-2.36 1.31 0 2.36 1.057 2.36 2.36a2.354 2.354 0 0 1-2.36 2.358 2.36 2.36 0 0 1-2.36-2.358zm-275.304-58.9a2.36 2.36 0 0 1 2.36-2.358 2.36 2.36 0 0 1 2.363 2.358 2.36 2.36 0 0 1-2.363 2.357 2.36 2.36 0 0 1-2.36-2.357z"/><path d="M821.766 312.361a2.36 2.36 0 0 1 2.36-2.358 2.36 2.36 0 0 1 2.363 2.358 2.36 2.36 0 0 1-2.363 2.357 2.36 2.36 0 0 1-2.36-2.357z"/><path d="M821.766 312.361a2.36 2.36 0 0 1 2.36-2.358 2.36 2.36 0 0 1 2.363 2.358 2.36 2.36 0 0 1-2.363 2.357 2.36 2.36 0 0 1-2.36-2.357zm159.747-61.167a2.357 2.357 0 0 1 2.359-2.358 2.358 2.358 0 1 1 0 4.718 2.359 2.359 0 0 1-2.359-2.36z"/><path d="M981.513 251.194a2.357 2.357 0 0 1 2.359-2.358 2.358 2.358 0 1 1 0 4.718 2.359 2.359 0 0 1-2.359-2.36z"/><path d="M981.513 251.194a2.357 2.357 0 0 1 2.359-2.358 2.358 2.358 0 1 1 0 4.718 2.359 2.359 0 0 1-2.359-2.36zm115.557 120.067c0-1.303 1.06-2.36 2.36-2.36 1.31 0 2.36 1.057 2.36 2.36a2.354 2.354 0 0 1-2.36 2.358 2.36 2.36 0 0 1-2.36-2.358z"/><path d="M981.513 251.194a2.357 2.357 0 0 1 2.359-2.358 2.358 2.358 0 1 1 0 4.718 2.359 2.359 0 0 1-2.359-2.36zm-159.747 61.167a2.36 2.36 0 0 1 2.36-2.358 2.36 2.36 0 0 1 2.363 2.358 2.36 2.36 0 0 1-2.363 2.357 2.36 2.36 0 0 1-2.36-2.357zM660.89 339.546a2.36 2.36 0 1 1 4.719 0 2.36 2.36 0 0 1-4.719 0z"/><path d="M660.89 339.546a2.36 2.36 0 1 1 4.719 0 2.36 2.36 0 0 1-4.719 0zm-128.026 91.749a2.36 2.36 0 0 1 2.361-2.36 2.364 2.364 0 0 1 2.363 2.36 2.361 2.361 0 0 1-2.363 2.358 2.357 2.357 0 0 1-2.361-2.358z"/><path d="M532.864 431.295a2.36 2.36 0 0 1 2.361-2.36 2.364 2.364 0 0 1 2.363 2.36 2.361 2.361 0 0 1-2.363 2.358 2.357 2.357 0 0 1-2.361-2.358z"/><path d="M532.864 431.295a2.36 2.36 0 0 1 2.361-2.36 2.364 2.364 0 0 1 2.363 2.36 2.361 2.361 0 0 1-2.363 2.358 2.357 2.357 0 0 1-2.361-2.358zm128.026-91.749a2.36 2.36 0 1 1 4.719 0 2.36 2.36 0 0 1-4.719 0z"/><path d="M532.864 431.295a2.36 2.36 0 0 1 2.361-2.36 2.364 2.364 0 0 1 2.363 2.36 2.361 2.361 0 0 1-2.363 2.358 2.357 2.357 0 0 1-2.361-2.358zm128.026-91.749a2.36 2.36 0 1 1 4.719 0 2.36 2.36 0 0 1-4.719 0zm160.876-27.185a2.36 2.36 0 0 1 2.36-2.358 2.36 2.36 0 0 1 2.363 2.358 2.36 2.36 0 0 1-2.363 2.357 2.36 2.36 0 0 1-2.36-2.357z"/><path d="M660.89 339.546a2.36 2.36 0 1 1 4.719 0 2.36 2.36 0 0 1-4.719 0zm124.625-151.783a2.359 2.359 0 1 1 2.356 2.358 2.358 2.358 0 0 1-2.356-2.358zm195.998 63.431a2.357 2.357 0 0 1 2.359-2.358 2.358 2.358 0 1 1 0 4.718 2.359 2.359 0 0 1-2.359-2.36z"/><path d="M785.515 187.763a2.359 2.359 0 1 1 2.356 2.358 2.358 2.358 0 0 1-2.356-2.358zm36.251 124.598a2.36 2.36 0 0 1 2.36-2.358 2.36 2.36 0 0 1 2.363 2.358 2.36 2.36 0 0 1-2.363 2.357 2.36 2.36 0 0 1-2.36-2.357z"/><path d="M785.515 187.763a2.359 2.359 0 1 1 2.356 2.358 2.358 2.358 0 0 1-2.356-2.358zm-239.056-45.309a2.36 2.36 0 0 1 2.36-2.358 2.36 2.36 0 0 1 2.363 2.358 2.36 2.36 0 0 1-2.363 2.357 2.36 2.36 0 0 1-2.36-2.357zm167.68-127.997a2.357 2.357 0 0 1 2.356-2.36 2.36 2.36 0 0 1 2.363 2.36 2.36 2.36 0 0 1-4.719 0z"/><path d="M785.515 187.763a2.359 2.359 0 1 1 2.356 2.358 2.358 2.358 0 0 1-2.356-2.358zM714.139 14.457a2.357 2.357 0 0 1 2.356-2.36 2.36 2.36 0 0 1 2.363 2.36 2.36 2.36 0 0 1-4.719 0zm-167.68 127.997a2.36 2.36 0 0 1 2.36-2.358 2.36 2.36 0 0 1 2.363 2.358 2.36 2.36 0 0 1-2.363 2.357 2.36 2.36 0 0 1-2.36-2.357z"/><path d="M714.139 14.457a2.357 2.357 0 0 1 2.356-2.36 2.36 2.36 0 0 1 2.363 2.36 2.36 2.36 0 0 1-4.719 0zm71.376 173.306a2.359 2.359 0 1 1 2.356 2.358 2.358 2.358 0 0 1-2.356-2.358z"/><path d="M714.139 14.457a2.357 2.357 0 0 1 2.356-2.36 2.36 2.36 0 0 1 2.363 2.36 2.36 2.36 0 0 1-4.719 0zm-167.68 127.997a2.36 2.36 0 0 1 2.36-2.358 2.36 2.36 0 0 1 2.363 2.358 2.36 2.36 0 0 1-2.363 2.357 2.36 2.36 0 0 1-2.36-2.357zM375.388 94.88a2.36 2.36 0 1 1 4.719-.001 2.36 2.36 0 0 1-4.719.001z"/><path d="M375.388 94.88a2.36 2.36 0 1 1 4.719-.001 2.36 2.36 0 0 1-4.719.001zm81.571 173.304a2.36 2.36 0 1 1 4.72 0 2.36 2.36 0 0 1-4.72 0zm89.5-125.73a2.36 2.36 0 0 1 2.36-2.358 2.36 2.36 0 0 1 2.363 2.358 2.36 2.36 0 0 1-2.363 2.357 2.36 2.36 0 0 1-2.36-2.357z"/><path d="M456.959 268.184a2.36 2.36 0 1 1 4.72 0 2.36 2.36 0 0 1-4.72 0zm75.905 163.111a2.36 2.36 0 0 1 2.361-2.36 2.364 2.364 0 0 1 2.363 2.36 2.361 2.361 0 0 1-2.363 2.358 2.357 2.357 0 0 1-2.361-2.358z"/><path d="M456.959 268.184a2.36 2.36 0 1 1 4.72 0 2.36 2.36 0 0 1-4.72 0zm203.931 71.362a2.36 2.36 0 1 1 4.719 0 2.36 2.36 0 0 1-4.719 0z"/><path d="M456.959 268.184a2.36 2.36 0 1 1 4.72 0 2.36 2.36 0 0 1-4.72 0zm257.18-253.727a2.357 2.357 0 0 1 2.356-2.36 2.36 2.36 0 0 1 2.363 2.36 2.36 2.36 0 0 1-4.719 0zm-4.533 176.703a2.356 2.356 0 0 1 2.358-2.358 2.358 2.358 0 1 1 0 4.718 2.358 2.358 0 0 1-2.358-2.36z"/><path d="M714.139 14.457a2.357 2.357 0 0 1 2.356-2.36 2.36 2.36 0 0 1 2.363 2.36 2.36 2.36 0 0 1-4.719 0zm-4.533 176.703a2.356 2.356 0 0 1 2.358-2.358 2.358 2.358 0 1 1 0 4.718 2.358 2.358 0 0 1-2.358-2.36zm-163.147-48.706a2.36 2.36 0 0 1 2.36-2.358 2.36 2.36 0 0 1 2.363 2.358 2.36 2.36 0 0 1-2.363 2.357 2.36 2.36 0 0 1-2.36-2.357z"/><path d="M709.606 191.16a2.356 2.356 0 0 1 2.358-2.358 2.358 2.358 0 1 1 0 4.718 2.358 2.358 0 0 1-2.358-2.36zm75.909-3.397a2.359 2.359 0 1 1 2.356 2.358 2.358 2.358 0 0 1-2.356-2.358z"/><path d="M709.606 191.16a2.356 2.356 0 0 1 2.358-2.358 2.358 2.358 0 1 1 0 4.718 2.358 2.358 0 0 1-2.358-2.36zM660.89 339.546a2.36 2.36 0 1 1 4.719 0 2.36 2.36 0 0 1-4.719 0z"/><path d="M709.606 191.16a2.356 2.356 0 0 1 2.358-2.358 2.358 2.358 0 1 1 0 4.718 2.358 2.358 0 0 1-2.358-2.36zm112.16 121.201a2.36 2.36 0 0 1 2.36-2.358 2.36 2.36 0 0 1 2.363 2.358 2.36 2.36 0 0 1-2.363 2.357 2.36 2.36 0 0 1-2.36-2.357z"/><path d="M709.606 191.16a2.356 2.356 0 0 1 2.358-2.358 2.358 2.358 0 1 1 0 4.718 2.358 2.358 0 0 1-2.358-2.36zM282.484 342.945a2.36 2.36 0 1 1 4.72 0 2.36 2.36 0 0 1-4.72 0zm-101.965 7.929a2.36 2.36 0 1 1 4.722 0 2.36 2.36 0 0 1-4.722 0zm176.737 67.96a2.362 2.362 0 0 1 4.724 0 2.361 2.361 0 0 1-4.724 0z"/><path d="M282.484 342.945a2.36 2.36 0 1 1 4.72 0 2.36 2.36 0 0 1-4.72 0zm74.772 75.889a2.362 2.362 0 0 1 4.724 0 2.361 2.361 0 0 1-4.724 0zm-176.737-67.96a2.36 2.36 0 1 1 4.722 0 2.36 2.36 0 0 1-4.722 0z"/><path d="M357.256 418.834a2.362 2.362 0 0 1 4.724 0 2.361 2.361 0 0 1-4.724 0zm99.703-150.65a2.36 2.36 0 1 1 4.72 0 2.36 2.36 0 0 1-4.72 0z"/><path d="M357.256 418.834a2.362 2.362 0 0 1 4.724 0 2.361 2.361 0 0 1-4.724 0z"/><path d="M357.256 418.834a2.362 2.362 0 0 1 4.724 0 2.361 2.361 0 0 1-4.724 0z"/><path d="M357.256 418.834a2.362 2.362 0 0 1 4.724 0 2.361 2.361 0 0 1-4.724 0zm175.608 12.461a2.36 2.36 0 0 1 2.361-2.36 2.364 2.364 0 0 1 2.363 2.36 2.361 2.361 0 0 1-2.363 2.358 2.357 2.357 0 0 1-2.361-2.358z"/><path d="M357.256 418.834a2.362 2.362 0 0 1 4.724 0 2.361 2.361 0 0 1-4.724 0zm-176.737-67.96a2.36 2.36 0 1 1 4.722 0 2.36 2.36 0 0 1-4.722 0zm-36.255-222.012a2.359 2.359 0 0 1 2.361-2.36 2.359 2.359 0 1 1 0 4.718 2.359 2.359 0 0 1-2.361-2.358z"/><path d="M144.264 128.862a2.359 2.359 0 0 1 2.361-2.36 2.359 2.359 0 1 1 0 4.718 2.359 2.359 0 0 1-2.361-2.358zM8.31 276.113a2.36 2.36 0 1 1 2.36 2.36 2.36 2.36 0 0 1-2.36-2.36z"/><path d="M8.31 276.113a2.36 2.36 0 1 1 2.36 2.36 2.36 2.36 0 0 1-2.36-2.36zm172.209 74.761a2.36 2.36 0 1 1 4.722 0 2.36 2.36 0 0 1-4.722 0z"/><path d="M8.31 276.113a2.36 2.36 0 1 1 2.36 2.36 2.36 2.36 0 0 1-2.36-2.36zm973.203-24.919a2.357 2.357 0 0 1 2.359-2.358 2.358 2.358 0 1 1 0 4.718 2.359 2.359 0 0 1-2.359-2.36zM1056.29 69.96a2.36 2.36 0 0 1 4.72 0 2.362 2.362 0 0 1-2.36 2.359 2.355 2.355 0 0 1-2.36-2.358z"/><path d="M1056.29 69.96a2.36 2.36 0 0 1 4.72 0 2.362 2.362 0 0 1-2.36 2.359 2.355 2.355 0 0 1-2.36-2.358zM872.748 30.315a2.362 2.362 0 1 1 4.724 0 2.362 2.362 0 1 1-4.724 0zM714.139 14.457a2.357 2.357 0 0 1 2.356-2.36 2.36 2.36 0 0 1 2.363 2.36 2.36 2.36 0 0 1-4.719 0z"/><path d="M872.748 30.315a2.362 2.362 0 1 1 4.724 0 2.362 2.362 0 1 1-4.724 0zM714.139 14.457a2.357 2.357 0 0 1 2.356-2.36 2.36 2.36 0 0 1 2.363 2.36 2.36 2.36 0 0 1-4.719 0z"/><path d="M872.748 30.315a2.362 2.362 0 1 1 4.724 0 2.362 2.362 0 1 1-4.724 0zm-87.233 157.448a2.359 2.359 0 1 1 2.356 2.358 2.358 2.358 0 0 1-2.356-2.358z"/><path d="M872.748 30.315a2.362 2.362 0 1 1 4.724 0 2.362 2.362 0 1 1-4.724 0zm224.322 340.946c0-1.303 1.06-2.36 2.36-2.36 1.31 0 2.36 1.057 2.36 2.36a2.354 2.354 0 0 1-2.36 2.358 2.36 2.36 0 0 1-2.36-2.358zM1056.29 69.96a2.36 2.36 0 0 1 4.72 0 2.362 2.362 0 0 1-2.36 2.359 2.355 2.355 0 0 1-2.36-2.358zm50.98 99.677a2.36 2.36 0 0 1 4.72 0 2.36 2.36 0 0 1-4.72 0zm-125.757 81.557a2.357 2.357 0 0 1 2.359-2.358 2.358 2.358 0 1 1 0 4.718 2.359 2.359 0 0 1-2.359-2.36z"/><path d="M1107.27 169.637a2.36 2.36 0 0 1 4.72 0 2.36 2.36 0 0 1-4.72 0zm-10.2 201.624c0-1.303 1.06-2.36 2.36-2.36 1.31 0 2.36 1.057 2.36 2.36a2.354 2.354 0 0 1-2.36 2.358 2.36 2.36 0 0 1-2.36-2.358z"/><path d="M1107.27 169.637a2.36 2.36 0 0 1 4.72 0 2.36 2.36 0 0 1-4.72 0zm-50.98-99.677a2.36 2.36 0 0 1 4.72 0 2.362 2.362 0 0 1-2.36 2.359 2.355 2.355 0 0 1-2.36-2.358zM872.748 30.315a2.362 2.362 0 1 1 4.724 0 2.362 2.362 0 1 1-4.724 0zm-16.994 15.857a2.36 2.36 0 0 1 2.361-2.358 2.36 2.36 0 0 1 2.363 2.358 2.36 2.36 0 0 1-2.363 2.358 2.36 2.36 0 0 1-2.361-2.358zM714.139 14.457a2.357 2.357 0 0 1 2.356-2.36 2.36 2.36 0 0 1 2.363 2.36 2.36 2.36 0 0 1-4.719 0z"/><path d="M714.139 14.457a2.357 2.357 0 0 1 2.356-2.36 2.36 2.36 0 0 1 2.363 2.36 2.36 2.36 0 0 1-4.719 0zM375.388 94.88a2.36 2.36 0 1 1 4.719-.001 2.36 2.36 0 0 1-4.719.001zm171.071 47.574a2.36 2.36 0 0 1 2.36-2.358 2.36 2.36 0 0 1 2.363 2.358 2.36 2.36 0 0 1-2.363 2.357 2.36 2.36 0 0 1-2.36-2.357zm163.147 48.706a2.356 2.356 0 0 1 2.358-2.358 2.358 2.358 0 1 1 0 4.718 2.358 2.358 0 0 1-2.358-2.36zm-168.809 10.194a2.356 2.356 0 0 1 2.358-2.357 2.358 2.358 0 1 1 0 4.715 2.356 2.356 0 0 1-2.358-2.358zm-83.838 66.83a2.36 2.36 0 1 1 4.72 0 2.36 2.36 0 0 1-4.72 0z"/><path d="M540.797 201.354a2.356 2.356 0 0 1 2.358-2.357 2.358 2.358 0 1 1 0 4.715 2.356 2.356 0 0 1-2.358-2.358zM375.388 94.88a2.36 2.36 0 1 1 4.719-.001 2.36 2.36 0 0 1-4.719.001z"/><path d="M540.797 201.354a2.356 2.356 0 0 1 2.358-2.357 2.358 2.358 0 1 1 0 4.715 2.356 2.356 0 0 1-2.358-2.358zm5.662-58.9a2.36 2.36 0 0 1 2.36-2.358 2.36 2.36 0 0 1 2.363 2.358 2.36 2.36 0 0 1-2.363 2.357 2.36 2.36 0 0 1-2.36-2.357z"/><path d="M540.797 201.354a2.356 2.356 0 0 1 2.358-2.357 2.358 2.358 0 1 1 0 4.715 2.356 2.356 0 0 1-2.358-2.358zM660.89 339.546a2.36 2.36 0 1 1 4.719 0 2.36 2.36 0 0 1-4.719 0z"/><path d="M540.797 201.354a2.356 2.356 0 0 1 2.358-2.357 2.358 2.358 0 1 1 0 4.715 2.356 2.356 0 0 1-2.358-2.358zm168.809-10.194a2.356 2.356 0 0 1 2.358-2.358 2.358 2.358 0 1 1 0 4.718 2.358 2.358 0 0 1-2.358-2.36zm18.127 207.287a2.36 2.36 0 1 1 4.718 0 2.36 2.36 0 0 1-4.718 0zm57.782-210.684a2.359 2.359 0 1 1 2.356 2.358 2.358 2.358 0 0 1-2.356-2.358z"/><path d="M727.733 398.447a2.36 2.36 0 1 1 4.718 0 2.36 2.36 0 0 1-4.718 0z"/><path d="M727.733 398.447a2.36 2.36 0 1 1 4.718 0 2.36 2.36 0 0 1-4.718 0z"/><path d="M727.733 398.447a2.36 2.36 0 1 1 4.718 0 2.36 2.36 0 0 1-4.718 0zm-194.869 32.848a2.36 2.36 0 0 1 2.361-2.36 2.364 2.364 0 0 1 2.363 2.36 2.361 2.361 0 0 1-2.363 2.358 2.357 2.357 0 0 1-2.361-2.358z"/><path d="M727.733 398.447a2.36 2.36 0 1 1 4.718 0 2.36 2.36 0 0 1-4.718 0zm-66.843-58.901a2.36 2.36 0 1 1 4.719 0 2.36 2.36 0 0 1-4.719 0z"/><path d="M727.733 398.447a2.36 2.36 0 1 1 4.718 0 2.36 2.36 0 0 1-4.718 0zm94.033-86.086a2.36 2.36 0 0 1 2.36-2.358 2.36 2.36 0 0 1 2.363 2.358 2.36 2.36 0 0 1-2.363 2.357 2.36 2.36 0 0 1-2.36-2.357z"/><path d="M727.733 398.447a2.36 2.36 0 1 1 4.718 0 2.36 2.36 0 0 1-4.718 0z"/><path d="M727.733 398.447a2.36 2.36 0 1 1 4.718 0 2.36 2.36 0 0 1-4.718 0z"/><path d="M727.733 398.447a2.36 2.36 0 1 1 4.718 0 2.36 2.36 0 0 1-4.718 0zM864.82 262.521a2.358 2.358 0 1 1 4.719 0 2.359 2.359 0 0 1-2.363 2.358 2.356 2.356 0 0 1-2.356-2.358zm28.323-12.46a2.361 2.361 0 1 1 4.723 0 2.364 2.364 0 0 1-2.363 2.36 2.36 2.36 0 0 1-2.36-2.36zM872.748 30.315a2.362 2.362 0 1 1 4.724 0 2.362 2.362 0 1 1-4.724 0z"/><path d="M893.143 250.061a2.361 2.361 0 1 1 4.723 0 2.364 2.364 0 0 1-2.363 2.36 2.36 2.36 0 0 1-2.36-2.36zM855.754 46.172a2.36 2.36 0 0 1 2.361-2.358 2.36 2.36 0 0 1 2.363 2.358 2.36 2.36 0 0 1-2.363 2.358 2.36 2.36 0 0 1-2.361-2.358z"/><path d="M893.143 250.061a2.361 2.361 0 1 1 4.723 0 2.364 2.364 0 0 1-2.363 2.36 2.36 2.36 0 0 1-2.36-2.36zM709.606 191.16a2.356 2.356 0 0 1 2.358-2.358 2.358 2.358 0 1 1 0 4.718 2.358 2.358 0 0 1-2.358-2.36z"/><path d="M893.143 250.061a2.361 2.361 0 1 1 4.723 0 2.364 2.364 0 0 1-2.363 2.36 2.36 2.36 0 0 1-2.36-2.36zm-107.628-62.298a2.359 2.359 0 1 1 2.356 2.358 2.358 2.358 0 0 1-2.356-2.358z"/><path d="M893.143 250.061a2.361 2.361 0 1 1 4.723 0 2.364 2.364 0 0 1-2.363 2.36 2.36 2.36 0 0 1-2.36-2.36zm88.37 1.133a2.357 2.357 0 0 1 2.359-2.358 2.358 2.358 0 1 1 0 4.718 2.359 2.359 0 0 1-2.359-2.36z"/><path d="M893.143 250.061a2.361 2.361 0 1 1 4.723 0 2.364 2.364 0 0 1-2.363 2.36 2.36 2.36 0 0 1-2.36-2.36zm-71.377 62.3a2.36 2.36 0 0 1 2.36-2.358 2.36 2.36 0 0 1 2.363 2.358 2.36 2.36 0 0 1-2.363 2.357 2.36 2.36 0 0 1-2.36-2.357z"/><path d="M893.143 250.061a2.361 2.361 0 1 1 4.723 0 2.364 2.364 0 0 1-2.363 2.36 2.36 2.36 0 0 1-2.36-2.36z"/><path d="M893.143 250.061a2.361 2.361 0 1 1 4.723 0 2.364 2.364 0 0 1-2.363 2.36 2.36 2.36 0 0 1-2.36-2.36z"/><path d="M893.143 250.061a2.361 2.361 0 1 1 4.723 0 2.364 2.364 0 0 1-2.363 2.36 2.36 2.36 0 0 1-2.36-2.36zm214.127-80.424a2.36 2.36 0 0 1 4.72 0 2.36 2.36 0 0 1-4.72 0zm56.65 77.027a2.352 2.352 0 0 1 2.36-2.358 2.359 2.359 0 1 1 0 4.716 2.354 2.354 0 0 1-2.36-2.358z"/><path d="M1163.92 246.664a2.352 2.352 0 0 1 2.36-2.358 2.359 2.359 0 1 1 0 4.716 2.354 2.354 0 0 1-2.36-2.358zM1056.29 69.96a2.36 2.36 0 0 1 4.72 0 2.362 2.362 0 0 1-2.36 2.359 2.355 2.355 0 0 1-2.36-2.358z"/><path d="M1163.92 246.664a2.352 2.352 0 0 1 2.36-2.358 2.359 2.359 0 1 1 0 4.716 2.354 2.354 0 0 1-2.36-2.358zm-182.407 4.53a2.357 2.357 0 0 1 2.359-2.358 2.358 2.358 0 1 1 0 4.718 2.359 2.359 0 0 1-2.359-2.36z"/><path d="M1163.92 246.664a2.352 2.352 0 0 1 2.36-2.358 2.359 2.359 0 1 1 0 4.716 2.354 2.354 0 0 1-2.36-2.358zm-66.85 124.597c0-1.303 1.06-2.36 2.36-2.36 1.31 0 2.36 1.057 2.36 2.36a2.354 2.354 0 0 1-2.36 2.358 2.36 2.36 0 0 1-2.36-2.358z"/><path d="M1163.92 246.664a2.352 2.352 0 0 1 2.36-2.358 2.359 2.359 0 1 1 0 4.716 2.354 2.354 0 0 1-2.36-2.358zm-270.777 3.397a2.361 2.361 0 1 1 4.723 0 2.364 2.364 0 0 1-2.363 2.36 2.36 2.36 0 0 1-2.36-2.36zm75.907-123.465a2.36 2.36 0 0 1 4.721 0 2.36 2.36 0 0 1-2.363 2.358 2.358 2.358 0 0 1-2.358-2.358zM864.82 262.521a2.358 2.358 0 1 1 4.719 0 2.359 2.359 0 0 1-2.363 2.358 2.356 2.356 0 0 1-2.356-2.358z"/><path d="M969.05 126.596a2.36 2.36 0 0 1 4.721 0 2.36 2.36 0 0 1-2.363 2.358 2.358 2.358 0 0 1-2.358-2.358zm138.22 43.041a2.36 2.36 0 0 1 4.72 0 2.36 2.36 0 0 1-4.72 0z"/><path d="M969.05 126.596a2.36 2.36 0 0 1 4.721 0 2.36 2.36 0 0 1-2.363 2.358 2.358 2.358 0 0 1-2.358-2.358zm-96.302-96.281a2.362 2.362 0 1 1 4.724 0 2.362 2.362 0 1 1-4.724 0z"/><path d="M969.05 126.596a2.36 2.36 0 0 1 4.721 0 2.36 2.36 0 0 1-2.363 2.358 2.358 2.358 0 0 1-2.358-2.358zM855.332 46.172a2.357 2.357 0 0 1 2.358-2.358 2.359 2.359 0 1 1-2.358 2.358z"/><path d="M969.05 126.596a2.36 2.36 0 0 1 4.721 0 2.36 2.36 0 0 1-2.363 2.358 2.358 2.358 0 0 1-2.358-2.358zm87.24-56.636a2.36 2.36 0 0 1 4.72 0 2.362 2.362 0 0 1-2.36 2.359 2.355 2.355 0 0 1-2.36-2.358z"/><path d="M969.05 126.596a2.36 2.36 0 0 1 4.721 0 2.36 2.36 0 0 1-2.363 2.358 2.358 2.358 0 0 1-2.358-2.358zm-183.535 61.167a2.359 2.359 0 1 1 2.356 2.358 2.358 2.358 0 0 1-2.356-2.358z"/><path d="M969.05 126.596a2.36 2.36 0 0 1 4.721 0 2.36 2.36 0 0 1-2.363 2.358 2.358 2.358 0 0 1-2.358-2.358zm12.463 124.598a2.357 2.357 0 0 1 2.359-2.358 2.358 2.358 0 1 1 0 4.718 2.359 2.359 0 0 1-2.359-2.36z"/><path d="M969.05 126.596a2.36 2.36 0 0 1 4.721 0 2.36 2.36 0 0 1-2.363 2.358 2.358 2.358 0 0 1-2.358-2.358zm-824.786 2.266a2.359 2.359 0 0 1 2.361-2.36 2.359 2.359 0 1 1 0 4.718 2.359 2.359 0 0 1-2.361-2.358zm172.209 126.864a2.36 2.36 0 1 1 4.719 0 2.359 2.359 0 0 1-4.719 0zm40.783 163.108a2.362 2.362 0 0 1 4.724 0 2.361 2.361 0 0 1-4.724 0z"/><path d="M316.473 255.726a2.36 2.36 0 1 1 4.719 0 2.359 2.359 0 0 1-4.719 0zm-33.989 87.219a2.36 2.36 0 1 1 4.72 0 2.36 2.36 0 0 1-4.72 0z"/><path d="M316.473 255.726a2.36 2.36 0 1 1 4.719 0 2.359 2.359 0 0 1-4.719 0zm-135.954 95.148a2.36 2.36 0 1 1 4.722 0 2.36 2.36 0 0 1-4.722 0z"/><path d="M316.473 255.726a2.36 2.36 0 1 1 4.719 0 2.359 2.359 0 0 1-4.719 0zm140.486 12.458a2.36 2.36 0 1 1 4.72 0 2.36 2.36 0 0 1-4.72 0z"/><path d="M316.473 255.726a2.36 2.36 0 1 1 4.719 0 2.359 2.359 0 0 1-4.719 0zM375.388 94.88a2.36 2.36 0 1 1 4.719-.001 2.36 2.36 0 0 1-4.719.001z"/><path d="M316.473 255.726a2.36 2.36 0 1 1 4.719 0 2.359 2.359 0 0 1-4.719 0z"/></g></svg>