<svg width="91" height="66" fill="none" xmlns="http://www.w3.org/2000/svg"><path fill-rule="evenodd" clip-rule="evenodd" d="M71.475 29.518c.71-4.7 4.74-8.315 9.607-8.315 5.366 0 9.73 4.39 9.73 9.786s-4.364 9.786-9.73 9.786c-4.757 0-8.72-3.452-9.559-7.996h-8.254a1.624 1.624 0 0 1-1.544-1.13l-5.264-16.435-7.2 24.436a1.624 1.624 0 0 1-1.503 1.166c-.672.052-1.334-.407-1.574-1.068L39.74 22.095 29.424 64a1.624 1.624 0 0 1-1.678 1.236 1.625 1.625 0 0 1-1.506-1.442l-6.126-53.73L9.371 48.533a1.624 1.624 0 0 1-1.553 1.19H7.81a1.623 1.623 0 0 1-1.557-1.173L.066 27.272a1.633 1.633 0 0 1 1.102-2.023 1.617 1.617 0 0 1 2.011 1.107l4.599 15.818L19.224 1.19A1.622 1.622 0 0 1 20.915.005a1.623 1.623 0 0 1 1.481 1.44l6.042 52.993 9.426-38.296a1.623 1.623 0 0 1 1.485-1.236c.754-.046 1.365.395 1.61 1.066l6.582 18.032 7.3-24.774a1.624 1.624 0 0 1 1.537-1.168c.686.004 1.344.45 1.563 1.131l6.51 20.325h7.024zm3.12 1.471c0 3.598 2.91 6.524 6.487 6.524 3.578 0 6.487-2.926 6.487-6.524 0-3.597-2.91-6.524-6.487-6.524s-6.486 2.927-6.486 6.524z" fill="#fff"/></svg>