<svg xmlns="http://www.w3.org/2000/svg" height="879.487" width="992.663" fill="none"><path d="M905.586 183.762v265.09c49.34 7.38 87.074 45.4 87.077 91.184 0 51.052-46.87 92.578-104.492 92.578-51.674 0-94.588-33.435-102.916-77.15H626.943v140.262c49.341 7.379 87.078 45.4 87.078 91.183 0 51.052-46.87 92.578-104.491 92.578-51.675 0-94.589-33.434-102.918-77.149H207.41c-8.333 43.715-51.244 77.15-102.919 77.15C46.87 879.487 0 837.96 0 786.907c0-45.785 37.738-83.803 87.078-91.182v-265.09C37.738 423.256 0 385.234 0 339.452c0-51.052 46.87-92.579 104.491-92.579 51.675 0 94.586 33.436 102.919 77.15h158.31v-140.26c-49.34-7.38-87.078-45.402-87.078-91.185C278.642 41.53 325.512 0 383.134 0c51.674 0 94.585 33.435 102.917 77.15h299.204C793.586 33.435 836.497 0 888.17 0c57.62 0 104.49 41.53 104.493 92.578 0 45.783-37.737 83.805-87.077 91.184zm52.245-91.184c0-34.031-31.24-61.717-69.66-61.717-38.422 0-69.658 27.686-69.658 61.717 0 34.03 31.24 61.718 69.658 61.718 38.42 0 69.66-27.687 69.66-61.718zm-644.36 0c0-34.031 31.24-61.717 69.658-61.717 38.419 0 69.66 27.686 69.66 61.717 0 34.03-31.241 61.718-69.66 61.718-38.418 0-69.659-27.687-69.659-61.718zM506.61 354.88H400.548v93.972c43.663 6.535 78.131 37.073 85.504 75.755h106.065v-93.971c-43.663-6.536-78.131-37.074-85.504-75.756zM383.135 478.318c38.418 0 69.66 27.687 69.66 61.718 0 34.03-31.242 61.717-69.66 61.717-38.42 0-69.66-27.686-69.66-61.717-.006-34.03 31.24-61.718 69.66-61.718zM104.49 277.734c-38.418 0-69.66 27.686-69.66 61.718 0 34.03 31.242 61.717 69.66 61.717 38.42 0 69.66-27.687 69.66-61.717 0-34.032-31.24-61.718-69.66-61.718zm0 570.892c-38.418 0-69.66-27.686-69.66-61.717 0-34.03 31.242-61.717 69.66-61.717 38.42 0 69.66 27.687 69.66 61.717 0 34.031-31.24 61.717-69.66 61.717zm102.919-77.145h299.198c7.372-38.686 41.845-69.223 85.504-75.755h.004V555.464H486.052c-8.333 43.715-51.244 77.15-102.918 77.15-57.622 0-104.492-41.526-104.492-92.578 0-45.783 37.739-83.806 87.078-91.184V354.88H207.41c-7.373 38.685-41.846 69.223-85.504 75.756v265.09c43.663 6.535 78.13 37.074 85.504 75.755zm471.78 15.428c0 34.031-31.242 61.717-69.66 61.717-38.42 0-69.66-27.686-69.66-61.717 0-34.03 31.24-61.717 69.66-61.717 38.418 0 69.66 27.687 69.66 61.717zM539.87 339.452c0 34.03 31.24 61.717 69.66 61.717 38.418 0 69.66-27.687 69.66-61.717 0-34.032-31.242-61.718-69.66-61.718-38.42 0-69.66 27.686-69.66 61.718zm245.385 185.155H626.943v-93.971c49.341-7.38 87.078-45.402 87.078-91.184 0-51.052-46.87-92.579-104.491-92.579-51.675 0-94.585 33.436-102.918 77.15H400.547v-140.26c43.66-6.533 78.131-37.071 85.504-75.756h299.204c7.372 38.68 41.84 69.22 85.503 75.755v265.09c-43.664 6.532-78.136 37.07-85.503 75.755zm33.258 15.429c0 34.03 31.24 61.717 69.658 61.717 38.42 0 69.66-27.686 69.66-61.717 0-34.03-31.24-61.718-69.66-61.718-38.417 0-69.658 27.687-69.658 61.718z" clip-rule="evenodd" fill="#6f9cd6" fill-rule="evenodd"/></svg>