<svg xmlns="http://www.w3.org/2000/svg" height="878.933" width="992.375"><path d="M89.151 877.888c-33.687-4.93-61.501-22.36-77.192-48.376-14.639-24.27-15.93-54.99-3.368-80.12 12.392-24.79 38.162-44.704 66.722-51.561 4.95-1.189 9.563-2.322 10.25-2.518.992-.284 1.25-27.698 1.25-132.775V430.12l-4.75-.689c-6.464-.937-20.838-5.8-28.472-9.634-20.673-10.38-38.116-27.854-46.318-46.4-5.202-11.762-6.88-20.033-6.902-34.004-.023-15.044 1.54-22.42 7.452-35.174 4.8-10.355 8.593-15.849 17.182-24.89 14.973-15.764 36.59-26.959 59.895-31.02 13.598-2.37 34.965-1.512 48.19 1.934 28.27 7.368 52.24 25.327 65.15 48.816 3.708 6.745 8.573 19.803 8.573 23.009 0 1.751 3.21 1.825 79.5 1.825h79.5V253.86c0-55.172-.265-70.105-1.25-70.379-.687-.191-4.625-1.091-8.75-2-9.89-2.178-22.08-7.174-32.217-13.202-10.623-6.318-26.671-22.128-32.369-31.887-20.212-34.623-15.723-73.78 11.81-103.013C344-10.116 418.626-11.225 460.884 31.033c11.232 11.232 19.692 25.418 23.46 39.337l1.765 6.523h299.48l.7-3.75c3.185-17.068 17.031-37.797 33.785-50.578 39.44-30.087 97.037-30.087 136.477 0 16.252 12.398 27.12 27.928 32.906 47.02 2.301 7.596 2.678 10.665 2.734 22.308.07 14.295-1.022 20.362-5.786 32.158-11.106 27.495-38.914 50.075-70.593 57.32-4.125.943-8.062 1.882-8.75 2.087-.991.295-1.25 27.72-1.25 132.79v132.418l4.75.688c7.552 1.095 21.997 6.27 31.528 11.295 23.614 12.449 41.048 33.47 47.89 57.744 2.996 10.63 3.216 30.497.453 41-2.186 8.311-8.128 21.47-12.686 28.096-12.998 18.89-35.93 34.429-60.435 40.947-13.393 3.562-34.561 4.455-48.413 2.04-32.56-5.673-60.015-24.373-74.514-50.75-3.707-6.744-8.573-19.803-8.573-23.008 0-1.752-3.21-1.825-79.5-1.825h-79.5v70.031c0 55.173.266 70.105 1.25 70.38.688.19 4.625 1.09 8.75 2 18.944 4.171 35.992 13.66 50.468 28.089 19.258 19.195 27.484 39.581 26.23 65-.636 12.869-3.078 22.324-8.605 33.315-31.012 61.671-122.994 74.172-173.576 23.59-10.884-10.884-19.322-25.12-23.048-38.882l-1.765-6.523h-299.48l-.7 3.75c-2.136 11.445-11.423 28.58-21.358 39.403-22.46 24.469-61.533 37.86-95.828 32.842zm37.162-32.983c12.428-3.923 20.263-8.68 29.592-17.963 13.354-13.289 18.611-26.255 17.657-43.55-.83-15.054-6.19-26.64-17.494-37.822-27.727-27.426-74.954-27.746-102.928-.698-18.907 18.282-23.486 43.517-12.161 67.02 4.271 8.866 17.651 22.154 27.334 27.148 13.508 6.966 22.248 8.879 38.5 8.425 9.367-.262 14.255-.903 19.5-2.56zM625 846.441c25.827-5.473 46.438-23.646 52.286-46.1 1.943-7.46 1.961-20.366.04-27.745-4.648-17.844-17.538-32.301-36.687-41.149-16.382-7.568-38.09-8.675-55.086-2.809-11.958 4.128-18.877 8.413-27.854 17.255-18.74 18.456-23.022 43.722-11.218 66.185 9.059 17.24 26.312 29.725 47.333 34.255 8.511 1.834 22.809 1.884 31.186.108zm-116.703-82.122c8.896-32.863 38.79-59.154 77.017-67.737l6-1.347.257-70.171.257-70.171-52.757.01-52.757.01-3.178 9.943c-13.356 41.78-55.842 68.739-105.217 66.762-30.213-1.21-54.74-12.044-74.696-32.993-10.245-10.755-15.815-19.884-20.58-33.732-3.12-9.068-3.268-10.182-3.281-24.5-.016-17.486 1.176-23.034 7.988-37.154 7.032-14.577 17.88-27.065 31.696-36.487 11.812-8.055 30.005-15.578 42.018-17.376l4.75-.71v-93.773H207.256l-1.754 6.75c-6.05 23.265-25.427 45.581-50.523 58.183-7.47 3.75-21.87 8.6-28.486 9.592l-4.68.702v132.418c0 105.077.259 132.491 1.25 132.775.688.196 5.273 1.324 10.188 2.507 16.24 3.905 33.845 13.22 46.298 24.492 11.635 10.533 22.252 27.697 26.02 42.067l1.71 6.514h299.238zM401.69 598.87c13.116-3.145 23.105-8.843 33.169-18.92 13.181-13.2 18.746-26.963 17.625-43.585-.991-14.692-6.773-26.801-18.199-38.115-8.01-7.932-20.515-14.9-32.472-18.091-8.89-2.374-29.02-2.316-38 .11-23.901 6.454-43.028 24.277-48.468 45.164-.842 3.234-1.526 9.947-1.518 14.919.04 26.912 20.446 50.728 50.128 58.502 10.235 2.681 26.589 2.688 37.735.016zm510.998-1.508c11.12-3.741 24.933-12.966 31.404-20.97 18.983-23.482 18.22-53.678-1.906-75.415-28.327-30.596-79.842-30.504-107.952.192-28.691 31.333-15.794 78.3 26.07 94.931 9.528 3.786 16.338 4.772 30.51 4.418 11.602-.29 14.676-.734 21.874-3.156zm-320.875-120.34v-46.87l-6.07-1.194c-35.993-7.081-66.861-33.37-76.694-65.316l-2.693-8.75H400.813l.003 46.75.004 46.75 9.747 2.268c18.325 4.265 35.126 13.321 48.618 26.206 12.738 12.165 21.158 25.72 25.16 40.503l1.765 6.523h105.703zm194.461 43.12c.376-2.063 2.141-7.35 3.923-11.75 8.31-20.519 25.472-38.397 47.451-49.434 7.47-3.75 21.87-8.6 28.486-9.592l4.68-.701V316.248c0-105.077-.259-132.492-1.25-132.775-.688-.197-5.273-1.325-10.188-2.507-16.24-3.906-33.845-13.22-46.298-24.493-11.635-10.533-22.252-27.696-26.02-42.066l-1.71-6.514H486.11l-1.78 6.574c-8.895 32.862-38.788 59.154-77.017 67.737l-6 1.347-.256 70.17-.257 70.172h105.814l1.242-5.179c6.536-27.244 29.1-51.737 58.791-63.82 15.152-6.167 22.94-7.507 43.166-7.43 16.648.064 19.469.331 28.17 2.672 21.256 5.717 37.055 14.942 51.422 30.025 10.245 10.755 15.815 19.884 20.58 33.732 3.119 9.068 3.268 10.182 3.281 24.5.016 17.485-1.176 23.033-7.988 37.153-7.032 14.578-17.88 27.066-31.696 36.488-11.812 8.055-30.005 15.578-42.019 17.375l-4.75.71v93.774h158.778zm-668.298-120.66c16.282-3.126 29.734-10.36 40.117-21.575 30.21-32.63 15.165-81.431-29.78-96.6-10.445-3.525-29.009-4.45-40.5-2.018-9.338 1.976-23.73 8.857-31.045 14.842-13.863 11.343-21.955 28.15-21.955 45.6 0 37.975 41.455 67.76 83.163 59.752zm511.337-1.116c3.3-.877 9.825-3.465 14.5-5.75 6.75-3.3 10.271-5.914 17.097-12.69 13.814-13.715 18.546-25.492 17.665-43.968-1.274-26.727-21.16-48.7-50.873-56.214-7.093-1.793-10.201-2.02-21.345-1.557-9.35.388-14.849 1.134-19.419 2.634-40.997 13.46-58.55 53.29-38.643 87.69 6.302 10.892 21.631 22.904 35.71 27.982 12.635 4.558 32.169 5.365 45.308 1.873zM398.72 152.413c34.69-7.298 57.78-36.689 53.305-67.851-3.644-25.368-25.861-46.872-53.985-52.253-36.83-7.047-73.044 12.9-82.63 45.515-2.102 7.154-2.093 22.029.017 29.137 5.35 18.02 17.704 31.664 36.563 40.377 13.513 6.244 31.756 8.225 46.73 5.075zm511.594-1.508c12.428-3.923 20.263-8.68 29.592-17.963 12.392-12.332 17.908-24.821 17.908-40.55 0-15.692-5.505-28.178-17.908-40.613-7.001-7.019-10.165-9.366-17.092-12.68-13.916-6.657-18.592-7.701-34.5-7.704-11.883-.002-15.133.352-21.5 2.34-19.7 6.151-34.613 18.319-42.477 34.658-16.784 34.875 5.723 74.32 47.977 84.08 9.026 2.086 29.046 1.26 38-1.568z" fill="#9f9f9f"/></svg>