<svg width="91" height="81" fill="none" xmlns="http://www.w3.org/2000/svg"><path fill-rule="evenodd" clip-rule="evenodd" d="M30.817 66.194c0-7.996 6.548-14.5 14.598-14.5s14.598 6.504 14.598 14.5-6.548 14.5-14.598 14.5-14.598-6.504-14.598-14.5zm3.245 0c0 6.217 5.094 11.277 11.353 11.277 6.26 0 11.354-5.06 11.354-11.278 0-6.217-5.094-11.277-11.354-11.277-6.26 0-11.353 5.06-11.353 11.277zm21.085-27.39c0 5.33-4.365 9.667-9.732 9.667-5.366 0-9.732-4.336-9.732-9.667 0-5.33 4.366-9.667 9.732-9.667 5.367 0 9.732 4.336 9.732 9.667zm-3.244 0c0-3.554-2.91-6.444-6.488-6.444-3.578 0-6.487 2.89-6.487 6.444s2.91 6.444 6.487 6.444c3.578 0 6.488-2.89 6.488-6.444zm8.11 9.666c0-5.33 4.365-9.666 9.732-9.666 5.366 0 9.731 4.337 9.731 9.667s-4.365 9.667-9.731 9.667c-5.367 0-9.732-4.336-9.732-9.667zm3.244 0c0 3.555 2.91 6.445 6.488 6.445 3.578 0 6.487-2.89 6.487-6.444s-2.91-6.444-6.487-6.444c-3.579 0-6.488 2.89-6.488 6.444zm-51.903 0c0-5.33 4.365-9.666 9.732-9.666 5.366 0 9.731 4.337 9.731 9.667s-4.365 9.667-9.731 9.667c-5.367 0-9.732-4.336-9.732-9.667zm3.244 0c0 3.555 2.91 6.445 6.488 6.445 3.578 0 6.487-2.89 6.487-6.444s-2.91-6.444-6.487-6.444c-3.579 0-6.488 2.89-6.488 6.444zm37.305-28.999c0 3.555-2.91 6.445-6.488 6.445-3.578 0-6.488-2.89-6.488-6.445 0-3.554 2.91-6.444 6.488-6.444 3.578 0 6.488 2.89 6.488 6.444zm-3.244 0c0-1.776-1.456-3.222-3.244-3.222-1.788 0-3.244 1.445-3.244 3.222s1.456 3.223 3.244 3.223c1.789 0 3.244-1.446 3.244-3.223zm24.33 4.833c0 3.555-2.91 6.445-6.488 6.445-3.579 0-6.488-2.89-6.488-6.445 0-3.554 2.91-6.444 6.488-6.444 3.578 0 6.488 2.89 6.488 6.444zm-3.244 0c0-1.776-1.456-3.222-3.244-3.222-1.788 0-3.244 1.446-3.244 3.223 0 1.776 1.456 3.222 3.244 3.222 1.788 0 3.244-1.446 3.244-3.222zm-38.928 0c0 3.555-2.91 6.445-6.487 6.445-3.579 0-6.488-2.89-6.488-6.445 0-3.554 2.91-6.444 6.488-6.444 3.578 0 6.487 2.89 6.487 6.444zm-3.243 0c0-1.776-1.456-3.222-3.244-3.222-1.789 0-3.244 1.446-3.244 3.223 0 1.776 1.455 3.222 3.244 3.222 1.788 0 3.244-1.446 3.244-3.222zM50.281 4.97c0 2.666-2.183 4.834-4.866 4.834S40.55 7.636 40.55 4.971 42.732.137 45.415.137s4.866 2.169 4.866 4.834zm-3.244 0c0-.888-.727-1.61-1.622-1.61-.895 0-1.621.722-1.621 1.61 0 .89.726 1.612 1.621 1.612s1.622-.722 1.622-1.611zm-27.573 6.446c0 2.665-2.183 4.833-4.866 4.833-2.684 0-4.866-2.168-4.866-4.833 0-2.666 2.183-4.834 4.866-4.834s4.866 2.168 4.866 4.834zm-3.244 0c0-.89-.727-1.612-1.622-1.612-.895 0-1.622.723-1.622 1.611 0 .89.727 1.611 1.622 1.611.895 0 1.622-.722 1.622-1.61zm63.257 0c0 2.665-2.183 4.833-4.866 4.833-2.684 0-4.866-2.168-4.866-4.833 0-2.666 2.182-4.834 4.866-4.834 2.683 0 4.865 2.168 4.865 4.834zm-3.245 0c0-.89-.726-1.612-1.621-1.612s-1.622.723-1.622 1.611c0 .89.727 1.611 1.621 1.611.896 0 1.622-.722 1.622-1.61zm1.623 24.166c0-3.554 2.91-6.444 6.487-6.444 3.579 0 6.488 2.89 6.488 6.444s-2.91 6.444-6.488 6.444c-3.578 0-6.487-2.89-6.487-6.444zm3.243 0c0 1.776 1.456 3.222 3.244 3.222 1.788 0 3.244-1.446 3.245-3.222 0-1.777-1.457-3.223-3.245-3.223s-3.244 1.447-3.244 3.223zM0 35.582c0-3.554 2.91-6.444 6.488-6.444 3.578 0 6.488 2.89 6.488 6.444s-2.91 6.444-6.488 6.444C2.91 42.026 0 39.136 0 35.582zm3.244 0c0 1.776 1.456 3.222 3.244 3.222 1.788 0 3.244-1.446 3.244-3.222 0-1.777-1.456-3.223-3.244-3.223-1.789 0-3.244 1.447-3.244 3.223z" fill="#6F9CD6"/></svg>