<svg xmlns="http://www.w3.org/2000/svg" height="1127.628" width="1127.642"><path d="M338.37 1126.678c-2.712-.555-8.284-2.558-12.383-4.452-21.387-9.881-34.185-29.703-34.185-52.95 0-21.446 12.104-41.198 31.276-51.036l7.723-3.963-.25-108.5-.249-108.5-108.5-.25-108.5-.25-3.963 7.724c-9.834 19.164-29.67 31.276-51.22 31.276-39.395 0-67.167-38.145-55.387-76.073 5.582-17.972 22.05-33.387 41.07-38.442 7.157-1.902 21.006-1.886 28.54.033 15.211 3.873 30.475 16.019 37.367 29.732l3.393 6.75h217.7v-388H112.928l-3.296 6.75c-6.73 13.78-22.056 25.891-37.77 29.843-8.821 2.218-24.367 1.543-32.492-1.412-17.58-6.395-31.006-20.071-36.667-37.354-3.327-10.154-3.324-26.286.007-35.827 6.022-17.256 19.705-31.18 36.37-37.013 7.782-2.724 22.909-3.713 31.021-2.03 15.882 3.298 31.607 15.448 39.238 30.318l3.963 7.723 108.5-.249 108.5-.25.25-108.5.25-108.5-7.75-3.972c-14.14-7.248-25.711-21.684-29.721-37.08-1.955-7.504-1.958-20.346-.007-27.987 8.774-34.37 45.734-53.19 78.564-40.008 16.408 6.589 29.758 22.016 34.516 39.886 1.824 6.852 1.765 20.8-.12 28.202-3.895 15.296-16.14 30.652-29.732 37.29l-6.75 3.295v217.875h388V112.87l-3.75-1.733c-16.065-7.428-28.49-22.164-32.732-38.82-1.969-7.732-1.938-21.124.068-28.896 4.81-18.644 19.961-34.643 38.587-40.744 10.154-3.326 26.286-3.323 35.827.007 17.252 6.021 31.166 19.69 37.019 36.37 3.067 8.74 3.769 24.016 1.503 32.723-4.161 15.988-15.408 30.165-29.77 37.527l-7.75 3.973.249 108.5.25 108.5 108.5.249 108.5.25 3.972-7.75c7.553-14.734 23.46-27.018 39.229-30.291 8.112-1.684 23.239-.695 31.021 2.029 20.318 7.111 35.385 25.511 38.524 47.047 3.587 24.616-9.337 48.809-32.318 60.494-10.575 5.377-27.301 7.052-39.468 3.954-15.211-3.874-30.475-16.02-37.367-29.732l-3.393-6.75h-217.7v388h217.7l3.393-6.75c2.266-4.509 5.885-9.243 10.9-14.257 11.762-11.763 24.327-16.993 40.822-16.993 30.878 0 55.774 23.374 57.835 54.3 1.856 27.846-16.717 53.184-44.11 60.178-7.642 1.95-20.484 1.948-27.988-.007-15.396-4.01-29.832-15.58-37.08-29.72l-3.973-7.75-108.5.25-108.5.249-.249 108.5-.25 108.5 7.75 3.936c18.951 9.627 31.25 29.796 31.25 51.248 0 39.887-39.462 68.005-77.08 54.923-39.139-13.611-51.888-62.846-24.237-93.6 4.864-5.41 14.066-12.17 19.869-14.594l3.447-1.44V796.777h-388v217.7l6.75 3.393c13.904 6.988 25.913 22.218 29.844 37.846 2.218 8.822 1.542 24.368-1.413 32.493-8.445 23.22-28.513 38.145-52.589 39.112-5 .2-11.31-.09-14.023-.643zm20.183-40.023c7.986-3.866 12.044-13.153 9.73-22.268-3.5-13.782-20.331-18.826-31.143-9.334-4.425 3.885-6.338 8.178-6.338 14.224 0 14.77 14.449 23.818 27.75 17.378zm429.496-.845c6.157-4.22 8.253-8.42 8.253-16.538 0-6.33-.328-7.582-2.865-10.908-7.327-9.606-19.462-11.068-28.199-3.397-4.876 4.282-6.579 8.037-6.579 14.515 0 7.287 3.783 13.645 10.143 17.046 5.835 3.12 14.095 2.812 19.247-.718zM69.267 793.37c9.553-7.286 10.997-19.444 3.345-28.159-4.282-4.876-8.037-6.578-14.515-6.578-7.287 0-13.645 3.783-17.046 10.143-4.933 9.226-1.178 21.282 8.098 25.998 6.07 3.086 15.054 2.459 20.118-1.404zm1010.757.456c5.406-3.704 8.108-8.41 8.55-14.894.773-11.33-7.651-20.3-19.066-20.3-6.478 0-10.234 1.703-14.515 6.58-8.551 9.738-5.638 23.61 6.31 30.047 4.434 2.39 14.237 1.639 18.72-1.433zm-322.222-230.05v-194h-388v388h388zM421.93 718.279c-4.786-1.493-9.382-5.334-11.966-10.002-1.526-2.756-1.66-14.507-1.66-144.5 0-131.258.122-141.725 1.698-144.602 2.192-4 8.079-9.157 11.57-10.134 3.594-1.006 280.905-.995 284.507.011 4.86 1.358 10.559 7.429 12.219 13.017 2.245 7.56 2.276 275.75.033 283.303-1.854 6.241-6.69 11.047-13.04 12.958-6.964 2.096-276.633 2.047-283.36-.051zm258.373-154.502v-116.5h-233l-.257 115.5c-.142 63.525-.043 116.064.22 116.754.38.997 24.261 1.202 116.758 1l116.28-.254zM67.415 366.99c3.624-1.95 8.254-8.006 9.414-12.313 4.245-15.762-12.468-29.19-27.36-21.981-12.859 6.225-14.288 25.008-2.496 32.812 6.125 4.054 14.53 4.663 20.442 1.482zm1013.263-1.513c11.62-7.69 10.29-26.57-2.303-32.665-4.868-2.357-12.16-2.653-16.87-.684-5.938 2.48-11.692 11.166-11.692 17.649 0 5.775 5.207 14.417 10.376 17.223 5.844 3.172 14.35 2.54 20.49-1.523zM355.178 76.69c2.133-.592 5.666-2.745 7.852-4.784 9.677-9.026 7.2-25.355-4.723-31.126-9.4-4.55-21.054-.696-25.47 8.425-5.159 10.658-.236 23.244 10.603 27.108 4.745 1.691 6.77 1.757 11.739.377zm431.931-1.666c1.64-.96 4.379-3.476 6.087-5.59 2.834-3.505 3.106-4.475 3.106-11.072 0-6.001-.41-7.829-2.41-10.748-3.743-5.463-8.43-8.164-14.933-8.608-11.33-.773-20.3 7.651-20.3 19.066 0 6.191 1.556 9.867 5.941 14.035 5.984 5.687 15.646 6.94 22.51 2.917z" fill="#9f9f9f"/></svg>