<svg width="97" height="83" fill="none" xmlns="http://www.w3.org/2000/svg"><path fill-rule="evenodd" clip-rule="evenodd" d="M80.418 73.935H15.36V9.185h65.057v64.75zm-3.614-61.153H18.975v57.556h57.829V12.782z" fill="#6F9CD6"/><path d="M26.204 36.164h3.614v-12.59h12.65v-3.598H26.204v16.188zM65.96 59.546H53.31v3.598h16.265V46.956H65.96v12.59zm-36.142-12.59h-3.614v16.188h16.264v-3.598h-12.65v-12.59zM53.31 23.574h12.65v12.59h3.615V19.976H53.31v3.598z" fill="#6F9CD6"/><path fill-rule="evenodd" clip-rule="evenodd" d="M96.682 10.983v3.598h-7.228v10.792h7.228v3.597h-7.228v10.791h7.228v3.598h-7.228V54.15h7.228v3.598h-7.228V68.54h7.228v3.597H88.98c-1.608 6.196-7.255 10.792-13.976 10.792H20.775c-6.72 0-12.367-4.597-13.976-10.792H0V68.54h6.325V57.748H0V54.15h6.325V43.358H0V39.76h6.325V28.97H0v-3.598h6.325V14.581H0v-3.598h6.8C8.407 4.787 14.054.191 20.774.191h54.228c6.721 0 12.368 4.597 13.976 10.792h7.703zm-11.746 14.39h.903V14.58h-.903v-3.597h.273C83.718 6.8 79.713 3.79 75.003 3.79H20.775c-4.709 0-8.714 3.01-10.205 7.194h1.177v3.598H9.94v10.792h1.807v3.597H9.94v10.791h1.807v3.598H9.94v10.79h1.807v3.598H9.94V68.54h1.807v3.597H10.57c1.49 4.184 5.496 7.194 10.205 7.194h54.228c4.71 0 8.715-3.01 10.206-7.194h-.273V68.54h.903V57.748h-.903V54.15h.903V43.358h-.903V39.76h.903V28.97h-.903v-3.598z" fill="#6F9CD6"/></svg>