<svg width="102" height="78" fill="none" xmlns="http://www.w3.org/2000/svg"><path fill-rule="evenodd" clip-rule="evenodd" d="M100.396 60.734L2.106 42.886A1.776 1.776 0 0 0 .03 44.322a1.784 1.784 0 0 0 1.439 2.074l47.3 8.59-10.983 11.966h-8.31c-1.964 0-3.562 1.609-3.562 3.587v3.535c0 1.978 1.598 3.587 3.562 3.587h44.701c1.965 0 3.563-1.609 3.563-3.587v-3.535c0-1.978-1.598-3.587-3.563-3.587h-8.31l-9.76-10.633 43.651 7.926a1.787 1.787 0 0 0 2.078-1.437 1.783 1.783 0 0 0-1.439-2.074zM74.164 70.54l.013 3.552-44.69-.017V70.54l-.012-.017 44.69.017zm-31.53-3.587h18.383l-9.191-10.015-9.191 10.015zm-11.36-54.255c0 6.888-5.612 12.493-12.51 12.493-6.897 0-12.509-5.605-12.509-12.493 0-6.89 5.612-12.495 12.51-12.495 6.897 0 12.51 5.606 12.51 12.495zm-3.574 0c0-4.921-4.009-8.925-8.935-8.925-4.927 0-8.936 4.004-8.936 8.925 0 4.92 4.009 8.924 8.936 8.924 4.926 0 8.935-4.004 8.935-8.924zm73.27 18.557c0 8.858-7.215 16.063-16.084 16.063-8.868 0-16.083-7.205-16.083-16.063 0-8.858 7.215-16.064 16.084-16.064 8.868 0 16.083 7.206 16.083 16.064zm-3.574 0c0-6.889-5.612-12.494-12.51-12.494-6.897 0-12.509 5.605-12.509 12.494 0 6.888 5.612 12.494 12.51 12.494 6.897 0 12.51-5.606 12.51-12.494z" fill="#6F9CD6"/><path d="M79.832 37.718a1.78 1.78 0 0 0 1.263-.523l3.606-3.6 3.345 3.339c.348.348.806.523 1.263.523a1.783 1.783 0 0 0 1.264-3.047l-3.345-3.34 2.713-2.708a1.783 1.783 0 0 0 0-2.524 1.788 1.788 0 0 0-2.528 0l-2.712 2.709-2.974-2.97a1.788 1.788 0 0 0-2.527 0 1.782 1.782 0 0 0 0 2.523l2.974 2.97-3.606 3.602a1.783 1.783 0 0 0 1.264 3.046z" fill="#6F9CD6"/></svg>